<svg width="268" height="104" viewBox="0 0 268 104" fill="none" xmlns="http://www.w3.org/2000/svg">
<path d="M49.9688 66.3594C49.9688 62.1406 51.1719 55.6719 53.5781 46.9531C46.0469 47.1406 40.2812 47.3594 36.2812 47.6094C35.0625 49.8281 33.9531 51.9375 32.9531 53.9375L30.0469 59.7031C26.2031 67.2656 22.75 72.25 19.6875 74.6562C17.3438 76.5312 14.8594 77.4688 12.2344 77.4688C10.2344 77.4688 8.71875 76.8125 7.6875 75.5C7.3125 74.9688 7.09375 74.4688 7.03125 74C6.96875 73.5 7.07812 73.1719 7.35938 73.0156C10.9531 71.6719 13.875 69.625 16.125 66.875C18.0938 64.4062 20.0625 61.3906 22.0312 57.8281L27.3281 48.3594L24.375 48.7812C22.5 49.125 21.5625 48.8281 21.5625 47.8906C21.5625 46.9531 22.125 46.0625 23.25 45.2188C25.2188 43.75 27.1406 42.7812 29.0156 42.3125L31.0312 41.8438C36.1562 33.375 40.0625 27.4531 42.75 24.0781C45.4688 20.7031 47.9375 17.8906 50.1562 15.6406C52.4062 13.3906 54.7656 11.4063 57.2344 9.6875C62.6406 5.96875 67.9688 4.10938 73.2188 4.10938C74.8125 4.10938 75.8906 4.4375 76.4531 5.09375C77.3906 6.125 77.6875 7.23438 77.3438 8.42188C77 9.57813 76.4375 11.25 75.6562 13.4375C70.6562 27.0625 67.6094 35.5 66.5156 38.75C67.0156 38.7188 67.4688 38.7031 67.875 38.7031H68.9062C72.4062 38.7031 74.2812 39.0469 74.5312 39.7344C74.5938 39.9531 74.625 40.3594 74.625 40.9531C74.625 41.5156 74.4375 42.1719 74.0625 42.9219C73.7188 43.6719 73.1406 44.3125 72.3281 44.8438C70.6719 45.9688 67.8906 46.625 63.9844 46.8125C61.8594 54.1562 60.6406 59.2344 60.3281 62.0469C60.0469 64.8594 60.1406 66.7656 60.6094 67.7656C61.1094 68.7344 61.7969 69.2188 62.6719 69.2188C63.5781 69.2188 64.3125 69.1406 64.875 68.9844C65.4375 68.7969 65.9375 68.5938 66.375 68.375L67.5938 67.8125C67.9062 67.625 68.2188 67.5312 68.5312 67.5312C68.875 67.5312 69.1562 67.75 69.375 68.1875C69.5938 68.5938 69.7031 69.1406 69.7031 69.8281C69.7031 70.5156 69.4062 71.3438 68.8125 72.3125C68.25 73.25 67.5 74.0938 66.5625 74.8438C64.375 76.5938 61.9062 77.4688 59.1562 77.4688C54.9375 77.4688 52.125 75.5938 50.7188 71.8438C50.2188 70.5312 49.9688 69.3594 49.9688 68.3281V66.3594ZM40.5938 40.2031C46.1562 39.4844 51.3125 39.0625 56.0625 38.9375C56.9375 36.25 57.875 33.5938 58.875 30.9688L61.7812 23.4688C62.7812 21.0937 63.7656 18.8437 64.7344 16.7188L67.4531 10.9531C60.9531 12.6406 54.5312 18.25 48.1875 27.7812C46.8438 29.7812 45.5312 31.8438 44.25 33.9688L40.5938 40.2031ZM75.2812 68.75C75.2812 67.7812 75.4844 66.8906 75.8906 66.0781C76.3281 65.2344 76.8594 64.5312 77.4844 63.9688C78.7969 62.75 80.1719 62.1406 81.6094 62.1406C82.8594 62.1406 83.4844 62.7812 83.4844 64.0625C83.4844 67.3125 84.5625 69.5781 86.7188 70.8594C87.5 71.3281 88.3125 71.5625 89.1562 71.5625C90 71.5625 90.7188 71.4688 91.3125 71.2812C91.9062 71.0938 92.4531 70.7969 92.9531 70.3906C94.0781 69.4844 94.6406 68.4062 94.6406 67.1562C94.6406 65.9062 94.3594 64.7656 93.7969 63.7344C93.2344 62.6719 92.5312 61.5625 91.6875 60.4062L89.0156 56.6562C85.2656 51.6562 83.3906 47.0469 83.3906 42.8281C83.3906 39.3281 84.875 36.1562 87.8438 33.3125C91.2188 30.0938 95.5469 28.4844 100.828 28.4844C105.453 28.4844 109.062 29.625 111.656 31.9062C113.781 33.75 114.844 35.8594 114.844 38.2344C114.844 40.7031 113.906 42.6719 112.031 44.1406C110.344 45.4531 108.656 45.9375 106.969 45.5938C106.219 45.4375 105.641 45.0625 105.234 44.4688C104.828 43.8438 104.75 43.1406 105 42.3594C105.25 41.5781 105.375 40.7656 105.375 39.9219C105.375 39.0781 105.219 38.2969 104.906 37.5781C104.594 36.8594 104.172 36.25 103.641 35.75C102.547 34.7188 101.391 34.2031 100.172 34.2031C98.9844 34.2031 98 34.3438 97.2188 34.625C96.4375 34.875 95.75 35.25 95.1562 35.75C93.9375 36.875 93.3281 38.2656 93.3281 39.9219C93.3281 41.5469 93.6094 42.9531 94.1719 44.1406C94.7344 45.3281 95.4219 46.5156 96.2344 47.7031C97.0781 48.8906 97.9844 50.0938 98.9531 51.3125C99.9219 52.5312 100.812 53.8125 101.625 55.1562C103.594 58.3125 104.578 61.0938 104.578 63.5C104.578 65.875 104.078 67.875 103.078 69.5C102.078 71.0938 100.781 72.4688 99.1875 73.625C95.7812 76.1562 91.9688 77.4219 87.75 77.4219C83.7188 77.4219 80.5312 76.4531 78.1875 74.5156C76.25 72.8906 75.2812 70.9688 75.2812 68.75ZM154.406 64.5312C154.406 67.4062 155.422 68.8438 157.453 68.8438C158.859 68.8438 160.016 68.625 160.922 68.1875C161.859 67.75 162.484 67.5312 162.797 67.5312C163.453 67.5312 163.781 67.875 163.781 68.5625C163.781 71.25 162.375 73.5625 159.562 75.5C156.594 77.5312 153.562 78.0312 150.469 77C148.438 76.2812 146.938 74.7344 145.969 72.3594C145.5 71.1406 145.266 70.0312 145.266 69.0312C145.266 67.4062 145.422 65.6875 145.734 63.875C142.828 69.8125 139.219 73.9062 134.906 76.1562C133.188 77.0312 131.359 77.4688 129.422 77.4688C127.484 77.4688 125.797 77.0781 124.359 76.2969C122.953 75.4844 121.75 74.375 120.75 72.9688C118.719 70.0312 117.797 66.3438 117.984 61.9062C118.172 56.3438 119.812 50.8906 122.906 45.5469C125.75 40.5469 129.344 36.4688 133.688 33.3125C138.031 30.0938 142.094 28.4844 145.875 28.4844C149.656 28.4844 152.703 30.2188 155.016 33.6875C157.172 30.2188 159.078 28.4844 160.734 28.4844C162.516 28.4844 163.859 28.8125 164.766 29.4688C166.484 30.7188 167.094 31.8125 166.594 32.75C158.75 48.8125 154.719 58.8125 154.5 62.75C154.438 63.3125 154.406 63.9062 154.406 64.5312ZM128.391 64.7188C128.391 68.4688 129.594 70.3438 132 70.3438C133.844 70.3438 136.109 68.7812 138.797 65.6562C142.734 61.0625 146.219 54.875 149.25 47.0938C150.219 44.6562 151.031 42.2188 151.688 39.7812C151.562 37.6562 150.672 36.0938 149.016 35.0938C148.453 34.75 147.609 34.5781 146.484 34.5781C145.391 34.5781 144.094 34.9844 142.594 35.7969C141.125 36.6094 139.688 37.7188 138.281 39.125C136.906 40.5312 135.609 42.2031 134.391 44.1406C133.203 46.0469 132.156 48.125 131.25 50.375C129.344 55.1875 128.391 59.9688 128.391 64.7188ZM178.641 72.5469C178.578 73.0156 177.891 75.4844 176.578 79.9531C175.297 84.4219 174.219 87.9688 173.344 90.5938C171.375 96.4688 169.75 100.125 168.469 101.562C167.438 102.688 166.188 103.25 164.719 103.25C162.938 103.25 161.578 102.375 160.641 100.625C160.359 100.125 160.219 99.5625 160.219 98.9375C160.219 98.3438 160.688 97.0312 161.625 95C164.094 89.8438 167.391 79.6875 171.516 64.5312C173.172 58.5312 174.266 54.4531 174.797 52.2969L176.297 46.4375C177.266 42.5625 177.828 39.9375 177.984 38.5625C178.172 37.1562 178.094 36.1719 177.75 35.6094C177.406 35.0156 177.016 34.5781 176.578 34.2969C176.141 33.9844 175.734 33.7188 175.359 33.5C174.984 33.2812 174.828 32.8906 174.891 32.3281C174.953 31.7344 175.203 31.2031 175.641 30.7344C176.109 30.2344 176.688 29.8125 177.375 29.4688C178.781 28.8125 180.188 28.4844 181.594 28.4844C183.031 28.4844 184.156 28.6563 184.969 29C185.781 29.3438 186.453 29.8125 186.984 30.4062C188.109 31.625 188.609 32.8125 188.484 33.9688C188.172 36.375 187.828 38.4375 187.453 40.1562C192.922 32.375 198.594 28.4844 204.469 28.4844C209.812 28.4844 213.391 31.25 215.203 36.7812C215.828 38.7188 216.141 41.0781 216.141 43.8594C216.141 46.6406 215.719 49.4375 214.875 52.25C214.031 55.0312 212.891 57.6719 211.453 60.1719C210.016 62.6719 208.344 64.9844 206.438 67.1094C204.531 69.2031 202.516 71.0312 200.391 72.5938C195.891 75.8438 191.641 77.4688 187.641 77.4688C183.641 77.4688 180.641 75.8281 178.641 72.5469ZM185.859 52.5781C184.734 54.7656 183.812 56.9531 183.094 59.1406C182.406 61.3281 182.062 63.3281 182.062 65.1406C182.062 66.9531 182.453 68.4531 183.234 69.6406C184.016 70.7969 185.172 71.375 186.703 71.375C188.234 71.375 189.75 70.9688 191.25 70.1562C192.781 69.3125 194.25 68.1875 195.656 66.7812C197.094 65.375 198.422 63.7344 199.641 61.8594C200.891 59.9531 201.969 57.9375 202.875 55.8125C204.844 51.1875 205.828 46.7969 205.828 42.6406C205.828 40.3906 205.531 38.6406 204.938 37.3906C204.344 36.1406 203.422 35.5156 202.172 35.5156C200.953 35.5156 199.672 36 198.328 36.9688C196.984 37.9062 195.578 39.1719 194.109 40.7656C192.641 42.3281 191.188 44.1406 189.75 46.2031C188.312 48.2344 187.016 50.3594 185.859 52.5781ZM237.422 58.9062C235.891 58.9062 235.125 56.7344 235.125 52.3906C235.125 46.3906 236.703 38.6875 239.859 29.2812C242.672 20.875 245.859 14.2188 249.422 9.3125C251.359 6.65625 253.281 5.0625 255.188 4.53125C256.188 4.28125 257.109 4.15625 257.953 4.15625C258.828 4.15625 259.594 4.21875 260.25 4.34375C260.906 4.46875 261.484 4.65625 261.984 4.90625C263.078 5.40625 263.625 6.04687 263.625 6.82812C263.625 7.60938 263.312 8.4375 262.688 9.3125C262.062 10.1875 261.062 11.6875 259.688 13.8125C258.312 15.9375 256.703 18.7188 254.859 22.1562C250.422 30.4062 246.094 40.1562 241.875 51.4062C241.438 52.5312 241.062 53.5625 240.75 54.5C240.469 55.4062 240.172 56.1875 239.859 56.8438C239.203 58.2188 238.391 58.9062 237.422 58.9062ZM229.594 75.4062C228.906 74.7188 228.359 73.9375 227.953 73.0625C227.547 72.1562 227.344 71.125 227.344 69.9688C227.344 68.7812 227.562 67.7344 228 66.8281C228.469 65.8906 229.047 65.1406 229.734 64.5781C230.953 63.5781 232.234 63.0781 233.578 63.0781C234.953 63.0781 236.109 63.1719 237.047 63.3594C238.016 63.5469 238.906 63.8438 239.719 64.25C241.688 65.25 242.672 66.6875 242.672 68.5625C242.672 70.9062 241.906 72.9531 240.375 74.7031C238.938 76.3281 237.438 77.2188 235.875 77.375C234.344 77.5312 233.094 77.4062 232.125 77C231.156 76.625 230.312 76.0938 229.594 75.4062Z" fill="#009F79"/>
<path d="M1 91.5215C91.3333 87.3549 270.5 81.5215 264.5 91.5215" stroke="#D87023" stroke-width="6"/>
</svg>
