<svg width="201" height="66" viewBox="0 0 201 66" fill="none" xmlns="http://www.w3.org/2000/svg">
<path d="M11.8332 47.1598C11.6928 47.1598 11.5772 47.1845 11.4946 47.2421C11.412 47.2997 11.3129 47.3244 11.1973 47.3244H11.1147C11.1147 47.3244 10.9991 47.275 10.8588 47.1763C10.7184 47.0775 10.6358 47.0282 10.6028 47.0282C10.5202 46.9706 10.3055 46.8636 9.97523 46.6908C9.64493 46.518 9.43023 46.411 9.34765 46.3534C9.40546 46.2135 9.37243 46.0572 9.2403 45.8679C9.10818 45.6786 9.03386 45.5799 9.00909 45.5552C8.62098 45.1931 8.15855 44.7488 7.62181 44.2386C7.08506 43.7284 6.54831 43.1853 6.00331 42.6257C5.4583 42.0661 4.95459 41.4983 4.49216 40.9306C4.02973 40.3628 3.67465 39.8361 3.41867 39.3588C3.39389 39.3341 3.2948 39.1202 3.12139 38.7334C2.94798 38.3467 2.77457 37.9105 2.5929 37.4333C2.41123 36.956 2.23782 36.5116 2.06441 36.092C1.891 35.6723 1.80017 35.409 1.76714 35.2938C1.32123 33.648 0.916598 31.887 0.545004 30.019C0.181668 28.1511 0 26.3654 0 24.662C0 24.5221 0.0165153 24.2752 0.0412882 23.9049C0.0660611 23.5346 0.107349 23.1561 0.148638 22.7529C0.189926 22.3497 0.222957 21.9958 0.255987 21.6831C0.289018 21.3704 0.297276 21.2059 0.297276 21.1812C0.322049 20.5969 0.412883 20.0044 0.553262 19.4037C0.693642 18.803 0.759704 18.2105 0.759704 17.6263L0.635839 17.3301C0.635839 17.2148 0.677127 17.1655 0.759704 17.1655C0.900084 16.5812 1.09001 15.9476 1.32948 15.2646C1.56895 14.5816 1.82494 13.8904 2.1057 13.1909C2.38646 12.4915 2.68374 11.8167 2.98927 11.1584C3.2948 10.5001 3.60859 9.9076 3.91413 9.38095C3.97193 9.29866 4.04625 9.167 4.14534 8.98596C4.24443 8.80492 4.34352 8.63213 4.44261 8.45932C4.54171 8.28651 4.63254 8.13839 4.71512 7.9985C4.79769 7.85861 4.8555 7.77631 4.88027 7.7434C4.93807 7.68579 5.13626 7.46362 5.46656 7.07686C5.79687 6.69011 6.16846 6.26219 6.55657 5.80137C6.94468 5.34055 7.32453 4.90442 7.68787 4.50121C8.0512 4.09799 8.30719 3.83467 8.44757 3.72769C8.47234 3.703 8.58795 3.57134 8.78613 3.34916C8.98432 3.12698 9.19902 2.89657 9.43849 2.65793L10.1073 1.99139C10.3138 1.78567 10.4541 1.66224 10.5037 1.63756C10.7266 1.49767 10.9413 1.39892 11.156 1.34132C11.3707 1.28371 11.5854 1.21787 11.8084 1.13558C11.9735 1.07798 12.1222 0.97924 12.246 0.839348C12.3699 0.699457 12.5433 0.633626 12.7745 0.633626L12.8571 0.67477H12.9397L13.237 0.839348C13.493 0.839348 13.6746 0.814662 13.782 0.757059C13.8893 0.699457 13.9884 0.625397 14.0792 0.52665C14.1701 0.427903 14.2609 0.329156 14.3765 0.230409C14.4921 0.131663 14.6573 0.0576023 14.8802 0H15.0454C15.0454 0 15.1114 0.0411445 15.1693 0.0411445C15.2271 0.0411445 15.2849 0.0576023 15.3344 0.0822891L15.4996 0.164578V0.962782C15.8629 1.04508 16.0776 1.17673 16.1519 1.35776C16.2262 1.5388 16.3253 1.78568 16.4657 2.09015L16.8043 2.75669V2.88012C16.6391 3.43969 16.4327 4.03217 16.1932 4.65757C15.9537 5.28296 15.6152 5.82606 15.161 6.27042C15.1362 6.29511 15.0371 6.3774 14.8637 6.50083C14.6903 6.62426 14.583 6.70656 14.5252 6.73125C14.4095 6.84645 14.1205 7.17561 13.6416 7.73518C13.1626 8.29474 12.6507 8.90368 12.0892 9.57845C11.5276 10.2532 11.0074 10.8621 10.5367 11.4217C10.066 11.9813 9.77705 12.3186 9.69447 12.4256C9.6697 12.5655 9.57887 12.7795 9.42197 13.0757C9.26508 13.3719 9.09167 13.6764 8.89348 13.9973C8.6953 14.3183 8.51363 14.6145 8.34848 14.8943C8.18333 15.1741 8.06772 15.3798 8.00991 15.5197C7.95211 15.602 7.89431 15.7172 7.84476 15.8571C7.79522 15.997 7.72916 16.1533 7.65484 16.3179C7.58052 16.4825 7.52271 16.6306 7.46491 16.754C7.40711 16.8775 7.38233 16.9598 7.38233 16.9844C7.35756 17.0091 7.3493 17.0914 7.35756 17.2148C7.36582 17.3383 7.38233 17.4206 7.38233 17.4453C7.35756 17.5029 7.29976 17.5605 7.21718 17.6345C7.13461 17.7086 7.0768 17.7497 7.05203 17.7826C6.91165 18.2846 6.78778 18.8442 6.67218 19.4613C6.55657 20.0785 6.46574 20.7039 6.3749 21.3458C6.28407 21.9876 6.21801 22.6212 6.16846 23.2466C6.11892 23.872 6.08589 24.4563 6.08589 24.9829C6.08589 25.7894 6.1024 26.6123 6.12717 27.4351C6.15195 28.258 6.25104 29.0727 6.42445 29.8874C6.44922 29.912 6.48225 29.9861 6.50702 30.0931C6.5318 30.2001 6.56483 30.2906 6.5896 30.3482C6.5896 30.3729 6.61437 30.4305 6.67218 30.5128C6.72998 30.595 6.75475 30.6526 6.75475 30.6773V31.3027C6.75475 31.3027 6.77953 31.385 6.82081 31.4673C6.8621 31.5496 6.89513 31.6072 6.92816 31.6319C6.92816 31.6566 6.98597 31.8458 7.09332 32.1997C7.20067 32.5535 7.33279 32.9238 7.47317 33.327C7.61355 33.7303 7.81173 34.2816 8.05946 34.9811C8.11726 35.1785 8.19984 35.4583 8.31545 35.8204C8.43105 36.1825 8.49712 36.3964 8.52189 36.4458C8.54666 36.5281 8.65401 36.6927 8.83568 36.9313C9.01735 37.1699 9.20727 37.425 9.40546 37.7048C9.60364 37.9846 9.79357 38.2397 9.97523 38.4783C10.1569 38.717 10.2725 38.8898 10.3303 39.005C10.355 39.0626 10.4294 39.1696 10.5367 39.3177C10.6441 39.4658 10.7349 39.5728 10.7927 39.6304C10.9083 39.7703 11.0817 39.9595 11.3212 40.1982C11.5607 40.4368 11.8084 40.6837 12.0809 40.9306C12.3534 41.1774 12.5846 41.4161 12.7911 41.6382C12.9975 41.8604 13.1461 42.0003 13.2287 42.0579C13.3691 42.1978 13.6251 42.3953 14.0049 42.6422C14.3848 42.889 14.7646 43.1688 15.161 43.4568C15.5574 43.7448 15.9042 44.0493 16.2097 44.3538C16.5152 44.6582 16.6721 44.938 16.6721 45.1931C16.6721 45.2507 16.6474 45.3577 16.6061 45.5305C16.5648 45.7033 16.4987 45.8679 16.4162 46.0325C16.3336 46.197 16.2427 46.3616 16.1437 46.518C16.0446 46.6743 15.9372 46.7648 15.8299 46.7895C15.8051 46.7895 15.6647 46.7648 15.4087 46.7072C15.1527 46.6496 15.0041 46.6414 14.9463 46.6661C14.9215 46.6661 14.7811 46.7402 14.5499 46.8965C14.3187 47.0529 14.1783 47.1434 14.1536 47.1681C14.3187 47.4478 14.3765 47.6289 14.3187 47.7112C14.2609 47.7935 14.1536 47.8264 14.0049 47.7935C13.8563 47.7605 13.6911 47.7194 13.5177 47.6453C13.3443 47.5713 13.237 47.5137 13.1792 47.4561C13.1544 47.4808 13.0966 47.5219 13.014 47.5631C12.9314 47.6042 12.8736 47.6289 12.8489 47.6289C12.7085 47.8264 12.6011 47.9087 12.5351 47.884C12.469 47.8593 12.3947 47.7852 12.3286 47.6783C12.2626 47.5713 12.18 47.4478 12.0974 47.3244C12.0148 47.201 11.9157 47.1351 11.8001 47.1351L11.8332 47.1598Z" fill="#36D0B8" fill-opacity="0.48"/>
<path d="M36.656 16.9279C36.6313 16.7304 36.6065 16.5823 36.59 16.4671C36.5735 16.3519 36.557 16.2038 36.5239 16.0063C36.5817 15.9816 36.7386 15.8911 37.0111 15.7512C37.2836 15.6113 37.4405 15.529 37.4983 15.4961H37.6635C37.7461 15.5208 37.8864 15.5619 38.0846 15.603C38.2828 15.6442 38.4892 15.6936 38.7122 15.7512C38.9351 15.8088 39.1499 15.8581 39.3398 15.8993C39.5297 15.9404 39.6783 15.9733 39.7609 16.0063C39.8187 16.0309 39.9013 16.0639 40.0169 16.0886C40.1325 16.1132 40.1986 16.1462 40.2233 16.1708C40.2481 16.1708 40.3059 16.2202 40.3885 16.319C40.4711 16.4177 40.5289 16.4671 40.5536 16.4671C40.5784 16.4918 40.6858 16.5494 40.8674 16.6317C41.0491 16.7139 41.1565 16.7715 41.1812 16.7962C41.206 16.8209 41.206 16.9114 41.1812 17.0513C41.1565 17.1912 41.1565 17.2571 41.1812 17.2571C41.206 17.3147 41.2968 17.3558 41.4372 17.3805C41.5776 17.4052 41.6602 17.4216 41.6932 17.4216V17.5862C41.8336 17.8084 41.9574 17.9812 42.0731 18.1129C42.1887 18.2445 42.2795 18.368 42.3456 18.4914C42.4116 18.6148 42.4694 18.7547 42.5107 18.9111C42.552 19.0674 42.5768 19.2978 42.5768 19.6023C42.5768 19.9891 42.5768 20.3264 42.552 20.6062C42.5272 20.886 42.4859 21.2316 42.4034 21.6513L41.8996 35.2537C42.04 36.5374 42.0978 37.8869 42.0648 39.2941C42.0318 40.7012 42.0235 42.0343 42.0235 43.2933C42.0235 43.3509 42.0235 43.499 41.9987 43.7541C41.974 44.0092 41.974 44.1738 41.974 44.2561C41.9162 44.3137 41.8088 44.4618 41.6602 44.7169C41.5115 44.972 41.4042 45.1366 41.3464 45.2189C41.3464 45.2436 41.2638 45.2929 41.0904 45.367C40.917 45.4411 40.7436 45.5069 40.5454 45.5727C40.3472 45.6386 40.1573 45.7044 39.9591 45.762C39.7609 45.8196 39.6371 45.8443 39.5792 45.8443H37.9855C37.8699 45.6221 37.8039 45.4575 37.7791 45.3588C37.7543 45.26 37.7295 45.2024 37.713 45.1942C37.6965 45.186 37.6717 45.2107 37.6304 45.2765C37.5892 45.3423 37.5148 45.4246 37.3992 45.5069C36.9781 45.2024 36.6643 44.7992 36.4579 44.3137C36.2514 43.8282 36.111 43.3427 36.0615 42.8654C35.9211 42.3881 35.8385 41.8944 35.8055 41.376C35.7725 40.8576 35.789 40.3227 35.8468 39.7631L35.5908 40.1005C35.5082 40.2157 35.4504 40.2815 35.4257 40.3062V40.6436L34.3356 41.9026C34.3934 42.0672 34.3356 42.2236 34.187 42.3635C34.0384 42.5033 33.8402 42.6268 33.6172 42.742C33.3943 42.8572 33.1631 42.9477 32.9236 43.0382C32.6841 43.1287 32.5107 43.1781 32.3951 43.2028C31.8336 43.3674 31.3299 43.499 30.884 43.5813C30.438 43.6636 29.9756 43.8611 29.4967 44.1656H26.5982C26.5982 44.1656 26.4744 44.1409 26.301 44.0998C26.1276 44.0586 26.0037 44.0257 25.9211 43.9928C25.8963 43.9928 25.8055 43.9681 25.6651 43.9105C25.5247 43.8529 25.3678 43.8035 25.2027 43.7624C25.0375 43.7212 24.8806 43.6718 24.7403 43.6142C24.5999 43.5566 24.5173 43.532 24.4843 43.532C23.419 43.1946 22.5107 42.6844 21.751 41.9849C20.9913 41.2855 20.3802 40.4708 19.9013 39.5327C19.4223 38.5946 19.0673 37.5907 18.8278 36.5209C18.5883 35.4512 18.4727 34.3814 18.4727 33.3199V32.8179C18.4727 32.8179 18.4975 32.7356 18.5388 32.6533C18.5801 32.5711 18.6131 32.5134 18.6461 32.4888C18.6461 32.4641 18.6709 32.3736 18.7122 32.2337C18.7535 32.0938 18.7865 31.9374 18.8195 31.7728C18.8526 31.6083 18.8773 31.4519 18.9021 31.312C18.9269 31.1721 18.9434 31.0898 18.9434 31.0569C19.1416 30.3328 19.3893 29.5593 19.7031 28.7364C20.0169 27.9135 20.3555 27.0906 20.7353 26.2677C21.1152 25.4448 21.528 24.6713 21.974 23.9472C22.4199 23.223 22.8823 22.5812 23.3612 22.0216C23.4438 21.9393 23.5925 21.7994 23.7989 21.6019C24.0053 21.4044 24.1457 21.281 24.1953 21.2234C24.22 21.1987 24.3356 21.1411 24.5338 21.0588C24.732 20.9765 24.9385 20.886 25.1614 20.7873C25.3844 20.6885 25.5908 20.598 25.7725 20.5157C25.9541 20.4334 26.0697 20.3758 26.1276 20.3511C26.1523 20.3264 26.1854 20.2853 26.2101 20.2441C26.2349 20.203 26.2679 20.1783 26.2927 20.1783C26.4579 19.8738 26.6726 19.6517 26.9203 19.5118C26.9781 19.5118 27.1102 19.4706 27.3167 19.3883C27.5231 19.3061 27.6635 19.2485 27.713 19.2238L28.0516 18.8864C28.1094 18.8617 28.258 18.7876 28.4892 18.6807C28.7287 18.5655 28.9021 18.4832 29.0177 18.4256L29.1003 18.3844L29.1829 18.4256L29.3067 18.549C29.4471 18.549 29.5627 18.5078 29.6453 18.4256V18.549C29.7279 18.3268 29.8683 18.1622 30.0664 18.047C30.2646 17.9318 30.4711 17.8495 30.694 17.7919C30.917 17.7343 31.1565 17.7014 31.4042 17.685C31.6519 17.6685 31.8831 17.6356 32.0731 17.578C32.0978 17.578 32.1969 17.5533 32.3703 17.5122C32.5437 17.471 32.6511 17.4463 32.7089 17.4463C32.7337 17.4463 32.7997 17.4463 32.8988 17.4216C32.9979 17.3969 33.0722 17.3969 33.13 17.3969C33.2704 17.3969 33.4025 17.3969 33.5264 17.4216C33.6503 17.4463 33.7576 17.5122 33.8402 17.652H33.1713C33.2869 17.7096 33.5016 17.7837 33.8237 17.8825C34.1457 17.9812 34.3604 18.047 34.476 18.0717L34.8146 17.9071C34.8146 17.9071 34.8311 17.8495 34.8559 17.8248L34.9385 17.7426H35.1036C35.1614 17.8002 35.2688 17.866 35.4174 17.9483C35.566 18.0306 35.6734 18.1046 35.7312 18.154C35.8963 18.2939 36.0285 18.3597 36.1276 18.3433L36.5652 18.2774V17.2735C36.5652 17.1336 36.5817 17.0102 36.6065 16.895L36.656 16.9279ZM31.8253 37.9445C32.4694 37.5249 33.1465 37.0476 33.865 36.4962C34.5834 35.9449 35.3018 35.3195 36.0285 34.5954C36.0285 34.2333 36.0532 33.5832 36.0945 32.6451C36.1358 31.707 36.1854 30.6537 36.2432 29.4852C36.301 28.3167 36.3588 27.0988 36.4083 25.8398C36.4579 24.5808 36.5074 23.437 36.5322 22.4084C36.3092 22.5482 36.045 22.6141 35.756 22.6141C35.4669 22.6141 35.244 22.6388 35.1036 22.6964C34.5751 22.9185 34.0714 23.0831 33.5925 23.1983C33.1135 23.3135 32.6098 23.4617 32.0813 23.6591C31.3546 23.9389 30.628 24.3504 29.9178 24.8935C29.2077 25.4366 28.5305 26.062 27.9029 26.7779C27.2754 27.4938 26.7056 28.2344 26.2019 29.0162C25.6982 29.7979 25.2935 30.5632 24.9797 31.3203C24.9219 31.4601 24.8394 31.6988 24.7238 32.0279C24.6081 32.3571 24.5421 32.5546 24.5173 32.6122V32.9496L24.4347 33.0319L24.3522 33.1142C24.2118 33.3117 24.1457 33.4598 24.1622 33.575C24.1787 33.6902 24.187 33.8959 24.187 34.2004C24.187 34.6447 24.187 35.0726 24.2118 35.4759C24.2366 35.8791 24.2778 36.2494 24.3769 36.5868C24.476 36.9241 24.6329 37.2204 24.8641 37.4837C25.0953 37.747 25.4257 37.9528 25.8716 38.0926H26.4991C26.5569 38.1173 26.6065 38.1667 26.6478 38.2408C26.6891 38.3148 26.6973 38.3724 26.6726 38.43H27.6387L27.7213 38.3477L27.8039 38.2655L27.8864 38.2243L27.969 38.2655C27.969 38.2655 28.0681 38.3313 28.1754 38.3889C28.2828 38.4465 28.3736 38.5041 28.4314 38.5535L28.5966 38.718C28.5966 38.718 28.6792 38.6934 28.7617 38.6358C28.8443 38.5782 28.9021 38.5535 28.9269 38.5535C28.9517 38.5535 29.0673 38.5535 29.2655 38.5288C29.4636 38.5041 29.6618 38.5041 29.8765 38.4876C30.0912 38.4712 30.2894 38.4629 30.4876 38.4465C30.6858 38.43 30.8096 38.4218 30.8674 38.4218C30.9252 38.3971 31.0739 38.3148 31.3051 38.1914C31.5363 38.068 31.718 37.9774 31.8336 37.9198L31.8253 37.9445Z" fill="#36D0B8" fill-opacity="0.48"/>
<path d="M46.6969 43.4329C46.6969 43.4329 46.5648 43.4658 46.3832 43.5399C46.2015 43.614 46.0941 43.6304 46.0694 43.6057C45.7638 43.5811 45.5078 43.4905 45.3097 43.3506C45.1115 43.2108 44.9628 43.0544 44.8472 42.8651C44.7316 42.6759 44.6491 42.4784 44.5912 42.2397C44.5334 42.0011 44.4674 41.7707 44.3848 41.5485C44.36 41.5238 44.294 41.4169 44.1949 41.2358C44.0958 41.0548 44.0462 40.9478 44.0462 40.9231V40.7585C44.0462 40.594 44.0297 40.4294 44.005 40.273C43.9802 40.1167 44.0297 40.0015 44.1701 39.9192C44.1701 39.8945 44.1701 39.7546 44.1453 39.5242C44.1206 39.2938 44.1206 39.0387 44.1206 38.7671C44.1206 38.4956 44.1206 38.257 44.0958 38.0348C44.071 37.8126 44.071 37.6892 44.071 37.6562C44.071 37.5163 44.071 37.3271 44.0462 37.0884C44.0215 36.8498 44.0215 36.7181 44.0215 36.6935C44.0215 36.496 44.0215 36.0105 43.9967 35.2287C43.9719 34.447 43.9637 33.5994 43.9306 32.6942C43.8976 31.789 43.8811 30.9497 43.8646 30.1844C43.8481 29.4191 43.8398 28.9336 43.8398 28.7361V21.075C43.8398 20.9351 43.8398 20.6882 43.8646 20.3426C43.8894 19.997 43.8894 19.6267 43.9059 19.2317C43.9224 18.8367 43.9389 18.4664 43.9719 18.1208C44.005 17.7752 44.0132 17.5283 44.0132 17.3884C44.1288 17.2485 44.1784 17.0264 44.1619 16.7219C44.1453 16.4174 44.2279 16.2611 44.3931 16.2611H44.4756C44.5913 16.2611 44.6408 16.3187 44.6408 16.4257C44.8637 16.2858 44.9876 16.0965 45.0206 15.8579C45.0537 15.6192 45.1858 15.504 45.4418 15.504V16.3845C45.64 16.3845 45.8629 16.3269 46.1107 16.2199C46.3584 16.113 46.4575 15.9155 46.4079 15.6357C46.4079 15.5781 46.3584 15.5205 46.2593 15.4464C46.1602 15.3724 46.0941 15.3312 46.0694 15.2983L46.0281 15.216C46.0859 15.216 46.2345 15.216 46.4657 15.1913C46.6969 15.1666 46.8538 15.1584 46.9034 15.1255C46.9282 15.1008 46.9694 15.0679 47.0272 15.0432L47.1924 14.9609H47.3576C47.6135 15.1255 47.7457 15.3065 47.7539 15.504C47.7622 15.7015 47.8448 15.9484 47.9851 16.2611C48.0099 16.2858 48.0512 16.3187 48.0925 16.3434C48.1338 16.3681 48.1585 16.401 48.1585 16.4257C48.1833 16.4257 48.2741 16.4503 48.4145 16.4915C48.5549 16.5326 48.6375 16.5655 48.6705 16.5985C48.6953 16.5985 48.7283 16.6643 48.7531 16.8042C48.7779 16.9441 48.8109 17.0264 48.8357 17.0593H48.9595C49.0421 17.1169 49.0917 17.2321 49.1082 17.4131C49.1247 17.5942 49.1247 17.7999 49.1082 18.0221C49.0917 18.2442 49.0834 18.4417 49.0669 18.6063C49.0504 18.7791 49.0669 18.8614 49.1329 18.8614C49.2486 18.8614 49.3642 18.7956 49.488 18.6721C49.6119 18.5487 49.744 18.4088 49.8679 18.2525L50.2477 17.7917C50.3716 17.6353 50.4789 17.5201 50.5615 17.4378C50.6193 17.3802 50.7267 17.3062 50.8753 17.2074L51.3377 16.9112C51.4946 16.8124 51.635 16.7219 51.7589 16.6396C51.8827 16.5573 51.9736 16.4997 52.0314 16.475C52.2543 16.3351 52.436 16.2858 52.5764 16.3269C52.7168 16.3681 52.8571 16.2529 52.9975 15.9731H57.3245C57.3245 15.9731 57.4319 15.9978 57.5557 16.0389C57.6796 16.08 57.7704 16.113 57.8282 16.1459C57.9934 16.2611 58.2659 16.4092 58.6292 16.6067C58.9925 16.8042 59.2072 16.9112 59.2568 16.9441C59.3394 17.0264 59.5706 17.2321 59.9504 17.553C60.3303 17.8739 60.6276 18.129 60.8505 18.3265C60.9083 18.3841 61.0157 18.5734 61.1891 18.8943C61.3542 19.2153 61.4533 19.4045 61.4863 19.4621C61.5111 19.4868 61.5607 19.528 61.635 19.5856C61.7093 19.6432 61.7423 19.6843 61.7423 19.709C61.7671 19.7666 61.8579 19.9229 61.9983 20.1945C62.1387 20.4661 62.2213 20.6224 62.2543 20.68C62.2873 20.7376 62.3286 20.8528 62.4029 21.0338C62.4773 21.2149 62.5516 21.4206 62.6342 21.6428C62.7167 21.865 62.7993 22.0789 62.8901 22.2929C62.981 22.5068 63.0305 22.6632 63.0553 22.7784C63.0801 22.8607 63.1214 22.9759 63.1792 23.1158C63.237 23.2557 63.2948 23.4038 63.3443 23.5519C63.3939 23.7 63.4517 23.8481 63.493 23.9716C63.5342 24.095 63.559 24.1773 63.559 24.202C63.5838 24.3419 63.6251 24.5311 63.6829 24.7698C63.7407 25.0084 63.7902 25.247 63.8315 25.4775C63.8728 25.7079 63.9141 25.93 63.9554 26.1275C63.9967 26.325 64.0214 26.432 64.0214 26.4649L64.2774 35.13C64.137 35.7471 64.1288 36.3808 64.2527 37.0308C64.3765 37.6809 64.3848 38.2899 64.2774 38.8494C64.2196 39.0716 64.1866 39.3432 64.1701 39.6641C64.1536 39.985 64.1453 40.3142 64.1453 40.6516V42.4948C64.1453 42.6347 64.1205 42.717 64.0627 42.7499L63.8976 42.8322L63.7324 42.9145C63.6746 42.9392 63.6333 43.0297 63.6086 43.1696C63.5508 43.3671 63.4104 43.4988 63.1874 43.5646C62.9645 43.6304 62.8406 43.7785 62.8076 44.0007L62.6837 43.8361L62.3451 44.1735C62.3451 44.1735 62.2213 44.19 62.0479 44.2147C61.8745 44.2394 61.7506 44.2558 61.668 44.2558C61.3625 44.2558 61.0982 44.2558 60.8918 44.2311C60.6854 44.2064 60.4954 44.1653 60.322 44.083C60.1486 44.0007 60 43.8773 59.8596 43.7292C59.7192 43.5811 59.5541 43.3836 59.3559 43.1614C59.3311 43.0791 59.2898 42.9392 59.232 42.7417C59.1742 42.5442 59.1164 42.3385 59.0669 42.1163C59.0173 41.8941 58.9513 41.6802 58.8769 41.4909C58.8026 41.3016 58.7613 41.1535 58.7283 41.0712V38.3475C58.7861 38.3228 58.7944 38.1747 58.7696 37.9113C58.7448 37.648 58.7448 37.4834 58.7696 37.4258C58.7944 37.3682 58.7944 37.2859 58.7448 37.1707C58.6953 37.0555 58.6705 36.9732 58.6375 36.9156H58.5136C58.5136 36.6605 58.5136 36.4466 58.5384 36.2656C58.5632 36.0845 58.6044 35.8788 58.687 35.6566C58.6622 35.6319 58.6705 35.5743 58.7283 35.492C58.7861 35.4097 58.8109 35.3521 58.8109 35.3275C58.8109 35.3028 58.7944 35.1629 58.7696 34.9325C58.7448 34.7021 58.7035 34.4305 58.6622 34.1343C58.621 33.838 58.5714 33.443 58.5136 32.9411L58.5962 32.8588L58.6788 32.7765V32.6119C58.6788 32.3568 58.6292 32.0935 58.5301 31.8137C58.431 31.5339 58.365 31.2706 58.3402 31.0155V29.2134C58.3402 29.0488 58.3237 28.8102 58.2989 28.5057C58.2411 28.086 58.2081 27.5594 58.1916 26.9175C58.175 26.2757 58.1007 25.7572 57.9603 25.3705C57.9356 25.3129 57.8695 25.2059 57.7704 25.0331C57.6713 24.8603 57.6218 24.7698 57.6218 24.7369V24.0703C57.6218 24.0703 57.5888 23.988 57.5144 23.9057C57.4401 23.8234 57.3741 23.7247 57.308 23.6095C57.2419 23.4943 57.1676 23.3955 57.1016 23.2968C57.0355 23.1981 56.9942 23.1322 56.9942 23.1075C56.6887 22.6879 56.3584 22.3998 56.0033 22.2517C55.6482 22.1036 55.194 22.046 54.6408 22.1036C54.2774 22.1036 53.9389 22.2188 53.6333 22.4574C53.3278 22.6961 53.0471 22.9841 52.7911 23.3379C52.5351 23.6918 52.3204 24.0539 52.1387 24.4488C51.9571 24.8438 51.8084 25.1894 51.7011 25.4939C51.5855 25.7737 51.4946 26.1275 51.4038 26.5637C51.313 26.9998 51.2386 27.4524 51.1478 27.9214C51.057 28.3905 50.9827 28.8595 50.9166 29.3039C50.8505 29.7483 50.7845 30.1103 50.7267 30.3901C50.6689 30.5876 50.6111 30.8592 50.5367 31.2048C50.4624 31.5504 50.4046 31.896 50.3468 32.2334C50.289 32.5708 50.2312 32.8752 50.1817 33.155C50.1321 33.4348 50.0991 33.5912 50.0991 33.6158C50.0991 33.6735 50.0991 33.9121 50.0743 34.3235C50.0495 34.735 50.0495 35.2205 50.033 35.7471C50.0165 36.2738 50.0082 36.7922 50.0082 37.2942V42.0669C49.9835 42.1245 49.9257 42.2068 49.8431 42.322C49.7605 42.4372 49.7027 42.5195 49.6779 42.5771C49.6779 42.6018 49.6532 42.6841 49.6119 42.8075C49.5706 42.931 49.5458 43.0133 49.5458 43.0379C49.2403 43.3424 48.9182 43.5481 48.5797 43.6469C48.2411 43.7456 47.853 43.795 47.4071 43.795H46.986C46.986 43.795 46.9034 43.7374 46.8208 43.6304C46.7382 43.5235 46.6804 43.4658 46.6557 43.4658L46.6969 43.4329Z" fill="#36D0B8" fill-opacity="0.48"/>
<path d="M84.5512 44.559C84.4934 44.5014 84.4025 44.3862 84.2787 44.2051C84.1548 44.0241 84.064 43.9089 84.0062 43.8513C83.9236 43.7361 83.8162 43.6538 83.6924 43.5962C83.5685 43.5386 83.4612 43.4398 83.3786 43.2999C83.263 43.16 83.1887 42.9955 83.1474 42.798C83.1061 42.6005 83.0565 42.4359 82.9987 42.296C82.974 42.1808 82.9327 42.008 82.8749 41.7694C82.8171 41.5307 82.7593 41.2838 82.7097 41.037C82.6602 40.7901 82.5941 40.5432 82.5446 40.3046C82.495 40.066 82.462 39.8932 82.462 39.778L82.1234 39.7368C81.9005 40.2964 81.6197 40.6749 81.2811 40.8889C80.9426 41.1028 80.538 41.3744 80.059 41.7035L79.6379 42.1232C79.5553 42.1479 79.3654 42.1808 79.0681 42.2055C78.7708 42.2302 78.6387 42.3701 78.6717 42.6252C78.5313 42.6252 78.2836 42.6252 77.912 42.6005C77.5404 42.5758 77.3092 42.5758 77.2019 42.5758C77.1441 42.5758 77.1028 42.5922 77.078 42.6169L76.9129 42.6992C76.855 42.7568 76.7725 42.798 76.6569 42.8227C76.5743 42.8473 76.5 42.8885 76.4504 42.9461H75.7568C75.3522 42.9461 75.0466 42.9296 74.8567 42.9049C74.8319 42.9049 74.7493 42.8885 74.6255 42.8638C74.5016 42.8391 74.4108 42.8391 74.353 42.8638L74.2291 42.9461H74.064C73.7584 42.8885 73.4612 42.8062 73.1804 42.691C72.8996 42.5758 72.6024 42.4853 72.2968 42.3948C72.2721 42.3948 72.2143 42.3948 72.1317 42.3701C72.0491 42.3454 71.9913 42.3454 71.9665 42.3454L71.7601 42.1808C71.7023 42.1808 71.661 42.2137 71.6362 42.2878C71.6114 42.3618 71.5702 42.403 71.5124 42.4359C71.4546 42.4688 71.3555 42.4359 71.2151 42.3701C71.0747 42.3042 70.8765 42.115 70.6288 41.8023C70.5462 41.9422 70.4801 41.9998 70.4389 41.9669C70.3976 41.9339 70.3563 41.8846 70.315 41.8023C70.2737 41.72 70.2324 41.6212 70.1911 41.506C70.1498 41.3908 70.1003 41.3415 70.0425 41.3415C69.9269 41.2016 69.7865 41.0864 69.6214 40.9876C69.4562 40.8889 69.3241 40.7737 69.2415 40.6338C68.0937 39.9096 67.2597 38.8399 66.7394 37.4327C66.2192 36.0256 65.9467 34.5361 65.9219 32.9727C65.9219 32.6106 65.955 32.1333 66.0293 31.549C66.1036 30.9648 66.1944 30.3723 66.3266 29.7716C66.4587 29.1709 66.5825 28.5949 66.7229 28.0353C66.8633 27.4757 67.0037 27.0314 67.1441 26.694C67.1688 26.6364 67.2101 26.5294 67.2679 26.3813C67.3257 26.2332 67.3835 26.1344 67.4331 26.1097C67.4331 26.0851 67.4496 26.0521 67.4744 26.0275L67.5569 25.9452C67.5817 25.8876 67.623 25.7641 67.6643 25.5666C67.7056 25.3691 67.7304 25.2457 67.7304 25.1881C68.2919 24.0196 69.0598 22.8593 70.0425 21.7155C71.0252 20.5717 71.9913 19.6089 72.9409 18.8272C72.9657 18.8025 73.04 18.7531 73.1474 18.679C73.263 18.605 73.329 18.5556 73.3538 18.5309C73.4116 18.5062 73.5603 18.4075 73.8162 18.2347C74.0722 18.0619 74.2374 17.9384 74.32 17.8561C74.7411 17.5517 75.2283 17.2719 75.7898 17.0168C76.3513 16.7617 76.9294 16.556 77.5322 16.3914C78.135 16.2268 78.7543 16.0869 79.3819 15.9717C80.0095 15.8565 80.604 15.7742 81.1655 15.7166C81.2811 15.7166 81.4215 15.7413 81.5867 15.7825C81.7518 15.8236 81.884 15.7825 81.9665 15.6343C81.9913 15.659 81.9913 15.6343 81.9665 15.5274C81.9418 15.4204 81.9252 15.3628 81.9252 15.3381C81.983 14.5563 81.9913 13.6676 81.9665 12.6555C81.9418 11.6433 81.9418 10.7464 81.9665 9.93172C81.9665 9.84943 81.9252 9.64371 81.8427 9.32278C81.7601 9.00185 81.7271 8.7879 81.7601 8.6727C81.7601 8.64801 81.7601 8.49989 81.7849 8.23656C81.8096 7.97324 81.8179 7.68523 81.8509 7.38076C81.8839 7.07629 81.9005 6.79651 81.917 6.54141C81.9335 6.28631 81.9418 6.13819 81.9418 6.08059C81.9418 6.0559 81.9583 5.92424 81.983 5.70206C82.0078 5.47988 82.0408 5.24124 82.0656 4.99437C82.0904 4.74751 82.1152 4.50887 82.1317 4.30315C82.1482 4.09742 82.1565 3.95753 82.1565 3.90816C82.1812 3.85056 82.2143 3.74358 82.239 3.57077C82.2638 3.39797 82.2968 3.30745 82.3216 3.27453C82.3794 3.15933 82.462 3.0935 82.5776 3.06881C82.6932 3.04412 82.7015 2.91246 82.6189 2.69028C82.6767 2.69028 82.784 2.67382 82.9327 2.64913C83.0813 2.62445 83.1887 2.60799 83.2465 2.60799C83.2712 2.60799 83.3538 2.62445 83.4777 2.64913C83.6015 2.67382 83.6841 2.69028 83.7089 2.69028C83.7667 2.69028 83.8575 2.64913 83.9814 2.56685C84.1053 2.48456 84.1878 2.42695 84.2126 2.40227C84.2374 2.40227 84.32 2.41872 84.4438 2.44341C84.5677 2.4681 84.6503 2.48456 84.675 2.48456C84.898 2.45987 85.1127 2.4105 85.3274 2.33644C85.5421 2.26238 85.7568 2.26238 85.9797 2.31175C86.0045 2.31175 86.0293 2.31175 86.0458 2.33644C86.0623 2.36112 86.0788 2.36112 86.1119 2.36112H86.1532C86.1532 2.36112 86.2357 2.45164 86.3183 2.55039C86.4009 2.64913 86.4587 2.69851 86.4835 2.69851C86.5082 2.75611 86.5908 2.81371 86.7147 2.86309C86.8385 2.91246 86.9211 2.94538 86.9459 2.94538C87.1441 3.06058 87.2101 3.2087 87.1523 3.40619C87.0945 3.60369 87.0945 3.76827 87.1523 3.90816C87.1523 3.93284 87.1771 3.99868 87.2184 4.09742C87.2597 4.19617 87.2927 4.262 87.3257 4.28669C87.3835 4.48418 87.4001 4.80511 87.3918 5.24947C87.3835 5.69383 87.4413 6.01476 87.5817 6.21225C87.5817 6.35214 87.5817 6.58255 87.6065 6.90348C87.6313 7.22441 87.6313 7.57002 87.6478 7.94855C87.6643 8.32708 87.6726 8.68093 87.6891 9.01831C87.7056 9.3557 87.7138 9.59434 87.7138 9.726C87.7138 9.85766 87.7138 10.1621 87.7386 10.6229C87.7634 11.0837 87.7716 11.6104 87.8047 12.1947C87.8377 12.7789 87.8542 13.4043 87.8707 14.0544C87.8873 14.7045 87.8955 15.3134 87.912 15.8565C87.9285 16.3996 87.9368 16.8522 87.9533 17.2143C87.9698 17.5764 87.9781 17.7739 87.9781 17.7985V18.3663C87.9781 18.6626 87.9781 18.9835 87.9533 19.3291C87.9285 19.6747 87.9285 19.9957 87.9285 20.2919V21.7566C87.9285 22.2422 87.9451 22.7688 87.9698 23.3284C87.9946 23.8879 88.0194 24.4146 88.0359 24.9165C88.0524 25.4185 88.0607 25.723 88.0607 25.8382V26.192C88.0607 26.3731 88.0607 26.5706 88.0359 26.7763C88.0111 26.982 88.0111 27.1795 87.9946 27.3605C87.9781 27.5416 87.9698 27.6568 87.9698 27.7144V30.0185C87.9698 30.1008 87.9698 30.2571 87.9946 30.4793C88.0194 30.7015 88.0194 30.9401 88.0359 31.187C88.0524 31.4338 88.0607 31.6725 88.0772 31.8947C88.0937 32.1168 88.102 32.2732 88.102 32.3555C88.1267 32.3802 88.168 32.4625 88.2093 32.5859C88.2506 32.7093 88.2754 32.7998 88.2754 32.8574C88.2754 32.8821 88.2506 32.9644 88.2093 33.0879C88.168 33.2113 88.1432 33.2936 88.1432 33.3183C88.1185 33.3759 88.102 33.4335 88.102 33.4828V33.7379C88.102 33.993 88.135 34.1247 88.2093 34.1576C88.2836 34.1905 88.3166 34.2728 88.3166 34.4127V34.495L88.2341 34.7501C88.2093 34.8077 88.1928 34.8653 88.1928 34.9394V35.2521C88.2176 35.5894 88.2506 36.0256 88.2754 36.5687C88.3001 37.1118 88.3332 37.6467 88.3579 38.1569C88.3827 38.6671 88.4157 39.1196 88.4405 39.4982C88.4653 39.8767 88.4818 40.0742 88.4818 40.1071C88.4818 40.14 88.4818 40.2141 88.5066 40.3375C88.5313 40.461 88.5396 40.5926 88.5726 40.7325C88.6057 40.8724 88.6222 41.0041 88.6387 41.1275C88.6552 41.2509 88.6635 41.3332 88.6635 41.3579C88.6635 41.4155 88.68 41.5719 88.7048 41.8434C88.7295 42.115 88.746 42.3125 88.746 42.4524C88.7708 42.872 88.7708 43.2835 88.7213 43.6867C88.6717 44.0899 88.5479 44.4767 88.3249 44.8387C88.3001 44.7811 88.2506 44.7318 88.1763 44.6906C88.102 44.6495 88.0441 44.6166 87.9863 44.5836L87.8212 44.7482C87.8212 44.7482 87.7799 44.847 87.6973 44.9539C87.6147 45.0609 87.5569 45.135 87.5322 45.1597L87.367 45.3242C87.367 45.3242 87.2844 45.2584 87.2019 45.2008C87.1193 45.1432 87.0615 45.1021 87.0367 45.0774H86.8303C86.7725 45.0774 86.7147 45.0774 86.6403 45.0527C86.566 45.028 86.5247 45.028 86.4917 45.028C86.2357 44.9704 86.0541 44.9704 85.9219 45.028C85.7898 45.0856 85.6329 45.0856 85.4347 45.028C85.2696 45.0033 85.1292 44.8799 85.0136 44.6742C84.898 44.4684 84.7741 44.4026 84.6337 44.4849L84.5512 44.559ZM74.386 36.6921C74.386 36.6921 74.4686 36.7415 74.5512 36.8402C74.6337 36.939 74.6915 37.013 74.7163 37.0706H74.8815C75.0219 37.0953 75.1127 37.0953 75.154 37.046C75.1953 36.9966 75.3191 36.9801 75.5091 36.9801H76.6403C76.8633 36.9554 77.0697 36.8814 77.2514 36.7744C77.4331 36.6674 77.6478 36.5769 77.9038 36.5193C77.9038 36.4946 77.9451 36.4699 78.0276 36.4535C78.1102 36.437 78.168 36.4206 78.1928 36.3877C78.7791 36.0832 79.3158 35.7623 79.7865 35.4249C80.2572 35.0875 80.7279 34.6843 81.1738 34.207C81.2316 34.1494 81.3142 34.0506 81.4298 33.9107C81.5454 33.7709 81.5949 33.6886 81.5949 33.6557C81.7105 33.4911 81.8014 33.2442 81.8674 32.9233C81.9335 32.6024 81.9913 32.265 82.0326 31.9194C82.0739 31.5737 82.0987 31.2281 82.1152 30.8907C82.1317 30.5534 82.1399 30.29 82.1399 30.0925C82.1399 30.0349 82.1399 29.9609 82.1152 29.8621C82.0904 29.7634 82.0904 29.6975 82.0904 29.6729C82.0904 29.4754 82.0904 29.0145 82.0656 28.2904C82.0408 27.5663 82.0408 26.801 82.0243 25.9863C82.0078 25.1716 81.9996 24.4064 81.983 23.6822C81.9665 22.9581 81.95 22.4972 81.917 22.2998C81.917 22.2751 81.8922 22.2422 81.8509 22.2175C81.8096 22.1928 81.7766 22.1516 81.7436 22.094H81.7023C80.3315 21.9295 79.0846 22.1599 77.9616 22.7853C76.8385 23.4107 75.9054 24.1842 75.1457 25.1058C75.1209 25.1305 75.0301 25.2622 74.8897 25.4843C74.7494 25.7065 74.5925 25.9534 74.4273 26.2167C74.2621 26.48 74.1053 26.7187 73.9649 26.9244C73.8245 27.1301 73.7419 27.2536 73.7089 27.2782C73.6759 27.3029 73.6346 27.3934 73.5603 27.5498C73.4859 27.7061 73.4116 27.879 73.329 28.0764C73.2465 28.2739 73.1309 28.5208 72.9905 28.8335C72.9657 28.8911 72.8996 29.0475 72.8005 29.319C72.7015 29.5906 72.5941 29.8868 72.4868 30.216L72.173 31.1541C72.0739 31.4503 72.0078 31.6231 71.983 31.6807C71.7849 32.158 71.7188 32.6188 71.7766 33.0796C71.8344 33.5404 71.8592 34.0671 71.8592 34.6513C71.8592 34.7666 71.8839 34.9229 71.9418 35.1369C71.9996 35.3508 72.0656 35.5565 72.1482 35.7623C72.2308 35.968 72.3381 36.1572 72.462 36.33C72.5858 36.5029 72.7345 36.5934 72.8996 36.6263C72.9822 36.6263 73.04 36.6427 73.0648 36.6674H73.3621C73.3621 36.6674 73.4446 36.6839 73.5272 36.6263C73.6098 36.5687 73.6676 36.5605 73.6924 36.5851H73.8575L73.9401 36.6674C74.0227 36.7497 74.0557 36.7909 74.0227 36.7909C74.0475 36.7662 74.0887 36.7333 74.1465 36.7086C74.2043 36.6839 74.2621 36.6674 74.3117 36.6674L74.386 36.6921Z" fill="#36D0B8" fill-opacity="0.48"/>
<path d="M102.566 44.314L102.483 44.3963C102.483 44.3963 102.425 44.4374 102.401 44.4374L102.318 44.4786C102.202 44.4786 102.136 44.4128 102.112 44.2729C102.087 44.133 102.013 44.0342 101.905 43.9766C101.74 44.1412 101.558 44.2153 101.36 44.1823C101.162 44.1494 100.972 44.0754 100.79 43.9519C100.609 43.8285 100.435 43.6804 100.262 43.5158L99.8 43.055V42.3473C99.8 42.1827 99.8 42.0264 99.7752 41.8865C99.7504 41.7466 99.7504 41.6643 99.7504 41.6314C99.7504 41.5738 99.7256 41.4668 99.6678 41.294C99.61 41.1212 99.5853 41.0142 99.5853 40.9566C99.5275 40.3724 99.5109 39.6811 99.5192 38.8829C99.5275 38.0847 99.544 37.2618 99.5605 36.4143C99.577 35.5667 99.5853 34.7356 99.6018 33.9209C99.6183 33.1062 99.6018 32.415 99.5357 31.8308C99.5357 31.7732 99.511 31.6415 99.4531 31.4358C99.3953 31.23 99.3706 31.0902 99.3706 31.0408V27.815C99.3706 27.56 99.3706 27.2555 99.3953 26.8934C99.4201 26.5313 99.4201 26.1446 99.4366 25.7414C99.4531 25.3381 99.4614 24.9432 99.4779 24.5729C99.4944 24.2026 99.4779 23.8816 99.4531 23.6348C99.4531 23.5772 99.4531 23.4208 99.4779 23.1493C99.5027 22.8777 99.5027 22.5979 99.5027 22.2935V20.9521C99.5027 20.9521 99.4779 20.8452 99.4366 20.7217C99.3953 20.5983 99.3706 20.516 99.3706 20.4913V19.9647C99.3706 19.6437 99.3871 19.2981 99.4119 18.9196C99.4366 18.5411 99.4614 18.1955 99.4779 17.8745C99.4944 17.5536 99.5027 17.3643 99.5027 17.3067C99.5027 17.2491 99.4779 17.1175 99.4201 16.9117C99.3623 16.706 99.3375 16.5661 99.3375 16.5168C99.2797 15.9325 99.2715 15.4059 99.3128 14.945C99.3541 14.4842 99.3128 13.9905 99.1641 13.4556L99.3706 7.72008C99.4531 7.72008 99.5357 7.6707 99.6018 7.57196C99.6678 7.47321 99.7091 7.39915 99.7091 7.34155L99.3706 7.00416V6.96302C99.3706 6.74084 99.3953 6.52689 99.4531 6.33762C99.511 6.14836 99.5357 5.9344 99.5357 5.71222C99.5357 5.43244 99.511 5.25141 99.4531 5.16912C99.3953 5.08683 99.3706 4.90579 99.3706 4.62601C99.3706 4.42851 99.3871 4.23925 99.4119 4.04176C99.4366 3.84426 99.577 3.72083 99.833 3.66323L99.9981 3.95947C100.138 3.90186 100.221 3.79489 100.254 3.64677C100.287 3.49865 100.369 3.39167 100.51 3.33407H100.807L100.889 3.25178L100.972 3.16949H101.311C101.311 3.16949 101.368 3.21886 101.393 3.31761C101.418 3.41636 101.451 3.48219 101.476 3.50688C101.501 3.50688 101.558 3.50688 101.641 3.48219C101.723 3.4575 101.765 3.48219 101.765 3.50688C101.79 3.53156 101.831 3.61385 101.872 3.73729C101.913 3.86072 101.938 3.94301 101.938 3.9677L102.021 4.00884C102.021 4.00884 102.079 3.99238 102.103 3.9677C102.128 3.9677 102.145 3.95124 102.145 3.92655L102.186 3.84426L102.268 3.67968C102.326 3.59739 102.409 3.52333 102.524 3.47396C102.64 3.42459 102.723 3.36698 102.78 3.32584C102.838 3.2847 102.847 3.25178 102.805 3.21886C102.764 3.18595 102.64 3.17772 102.45 3.17772C102.425 3.12012 102.384 3.01314 102.343 2.86502C102.302 2.7169 102.277 2.60993 102.277 2.55232V2.38775C102.302 2.33014 102.359 2.26431 102.442 2.18202C102.524 2.09973 102.582 2.05859 102.607 2.05859C102.632 2.05859 102.706 2.09973 102.814 2.18202C102.921 2.26431 103.012 2.33837 103.069 2.38775C103.127 2.38775 103.152 2.44535 103.152 2.55232H102.987C102.987 2.55232 102.946 2.60993 102.946 2.63461C102.921 2.6593 102.904 2.69221 102.904 2.7169C102.929 2.7169 103.02 2.74159 103.16 2.78273C103.301 2.82388 103.383 2.84856 103.416 2.84856C103.474 3.07074 103.532 3.23532 103.606 3.35053C103.681 3.46573 103.821 3.57271 104.044 3.68791C104.044 3.66323 104.06 3.62208 104.085 3.56448L104.151 3.44105L104.217 3.31761L104.382 2.89794C104.44 3.01314 104.548 3.22709 104.696 3.54802C104.845 3.86895 104.952 4.0829 105.01 4.1981C105.035 4.31331 105.076 4.49435 105.134 4.7659C105.192 5.03745 105.25 5.30078 105.299 5.58056C105.349 5.86034 105.406 6.10721 105.448 6.33762C105.489 6.56803 105.514 6.68323 105.514 6.71615V8.64171C105.514 8.69932 105.489 8.89681 105.448 9.25065C105.406 9.6045 105.365 9.99948 105.324 10.4438C105.283 10.8882 105.258 11.3325 105.241 11.7605C105.225 12.1884 105.241 12.534 105.266 12.7891C105.266 12.8467 105.291 13.003 105.349 13.2746C105.406 13.5461 105.431 13.7025 105.431 13.7601V14.0975C105.456 14.3196 105.472 14.6899 105.472 15.2084V16.9447C105.472 17.5865 105.472 18.2531 105.448 18.9361C105.431 19.6191 105.423 20.2609 105.423 20.8616V23.1822C105.448 23.2398 105.489 23.3714 105.53 23.5772C105.572 23.7829 105.596 23.9228 105.596 23.9722C105.621 24.1943 105.646 24.5482 105.662 25.0419C105.679 25.5356 105.695 26.0294 105.728 26.5313C105.761 27.0333 105.778 27.4859 105.795 27.8891C105.811 28.2923 105.819 28.5392 105.819 28.6215V29.3539C105.819 29.79 105.819 30.292 105.844 30.8844C105.869 31.4769 105.869 32.0529 105.869 32.6454V35.1799C105.869 35.6983 105.869 36.2414 105.844 36.8092C105.819 37.377 105.819 37.9284 105.819 38.4386V39.5083C105.819 39.5906 105.819 39.7141 105.795 39.8869C105.77 40.0597 105.761 40.2325 105.728 40.4135C105.695 40.5945 105.679 40.7674 105.662 40.9402C105.646 41.113 105.638 41.2364 105.638 41.3187C105.638 41.3763 105.613 41.5326 105.555 41.8042C105.497 42.0757 105.472 42.2321 105.472 42.2897C105.472 42.3144 105.448 42.4461 105.406 42.6682C105.365 42.8904 105.34 43.0303 105.34 43.0879C105.34 43.1455 105.258 43.2196 105.084 43.3183C104.911 43.4171 104.738 43.524 104.539 43.6557C104.341 43.7874 104.151 43.8861 103.953 43.9684C103.755 44.0507 103.614 44.0918 103.532 44.0918C103.309 44.0918 103.144 44.1412 103.045 44.2399C102.946 44.3387 102.789 44.3881 102.558 44.3881L102.566 44.314Z" fill="#36D0B8" fill-opacity="0.48"/>
<path d="M109.712 40.2487C109.654 40.1335 109.596 39.9854 109.522 39.7879C109.448 39.5904 109.382 39.3929 109.316 39.179C109.249 38.965 109.183 38.7675 109.126 38.57C109.068 38.3725 109.027 38.2327 109.002 38.1504C108.944 38.0681 108.886 37.9282 108.837 37.7307C108.787 37.5332 108.738 37.3933 108.713 37.311C108.713 37.2863 108.696 37.204 108.671 37.0806C108.647 36.9572 108.605 36.8173 108.564 36.6609C108.523 36.5046 108.482 36.3647 108.44 36.2413C108.399 36.1178 108.374 36.0273 108.374 35.9697C108.349 35.945 108.292 35.9039 108.209 35.8627C108.126 35.8216 108.085 35.7887 108.085 35.7557C108.06 35.7557 108.044 35.6981 108.044 35.5912C108.044 35.4842 108.027 35.4101 108.003 35.3854C108.027 35.3608 108.052 35.2949 108.069 35.1962C108.085 35.0974 108.069 35.0316 108.044 35.0069C108.044 34.9822 108.019 34.9164 107.961 34.8177C107.903 34.7189 107.879 34.6531 107.879 34.6284C107.879 34.5708 107.879 34.4473 107.854 34.2499C107.829 34.0524 107.829 33.8549 107.813 33.6409C107.796 33.427 107.788 33.2377 107.771 33.0567C107.755 32.8756 107.747 32.7687 107.747 32.744C107.747 32.7193 107.714 32.637 107.639 32.5136C107.565 32.3901 107.532 32.3078 107.532 32.2831C107.507 32.2585 107.474 32.1268 107.449 31.9046C107.425 31.6824 107.392 31.5014 107.367 31.3615V30.6538C107.392 30.5962 107.433 30.5386 107.491 30.4892L107.614 30.3658C107.474 30.3411 107.4 30.1601 107.383 29.8227C107.367 29.4853 107.383 29.1232 107.449 28.7365C107.515 28.3497 107.565 27.963 107.639 27.5844C107.714 27.2059 107.747 26.9673 107.747 26.8521C107.747 26.7945 107.763 26.671 107.788 26.4735C107.813 26.276 107.846 26.0785 107.87 25.8646C107.895 25.6506 107.928 25.4614 107.953 25.2803C107.978 25.0993 107.994 24.9841 107.994 24.9265C107.994 24.9018 107.994 24.8524 108.019 24.7784C108.044 24.7043 108.044 24.6467 108.044 24.5891C108.432 22.7458 109.15 21.1741 110.207 19.8822C111.256 18.582 112.495 17.4876 113.923 16.5906C114.543 16.2532 115.203 16.0146 115.922 15.8829C116.64 15.7513 117.35 15.6772 118.06 15.6937C118.771 15.7101 119.456 15.8089 120.1 15.9899C120.744 16.1709 121.322 16.426 121.826 16.7634C121.851 16.821 121.925 16.9033 122.032 17.0185L122.239 17.2242C122.239 17.2242 122.387 17.2736 122.594 17.3724C122.8 17.4711 122.924 17.5369 122.949 17.5616C123.618 18.0389 124.229 18.5902 124.774 19.2403C125.319 19.8822 125.814 20.5899 126.268 21.3716C126.69 22.0957 127.053 22.787 127.358 23.4453C127.664 24.1036 127.92 24.7619 128.118 25.4367C128.316 26.1115 128.457 26.8109 128.539 27.5515C128.622 28.2921 128.655 29.0903 128.622 29.9626C128.622 30.2177 128.605 30.5386 128.581 30.9501C128.556 31.3615 128.531 31.7647 128.515 32.1844C128.498 32.6041 128.473 33.0073 128.432 33.4023C128.391 33.7973 128.358 34.11 128.325 34.3651C128.3 34.4227 128.259 34.5132 128.217 34.6366C128.176 34.76 128.151 34.8423 128.151 34.867C128.151 34.9493 128.11 35.1221 128.027 35.369C127.945 35.6159 127.862 35.8956 127.771 36.1837C127.681 36.4717 127.598 36.7514 127.499 36.9983C127.4 37.2452 127.334 37.4344 127.309 37.5414C127.284 37.5661 127.243 37.6319 127.202 37.7307C127.16 37.8294 127.127 37.8788 127.094 37.8788C127.069 37.9035 127.028 37.92 126.97 37.92C126.913 37.92 126.904 37.9035 126.929 37.8788C126.566 38.6359 126.211 39.2695 125.856 39.7797C125.501 40.2899 125.121 40.7589 124.7 41.1621C124.278 41.5654 123.799 41.9357 123.271 42.273C122.742 42.6104 122.123 42.9725 121.421 43.3593C121.396 43.3593 121.33 43.3922 121.231 43.4662C121.132 43.5403 121.058 43.5979 121 43.6555C120.942 43.7131 120.785 43.7707 120.513 43.8201C120.24 43.8695 120.084 43.9188 120.026 43.9435C119.266 44.0587 118.531 44.1657 117.821 44.2809C117.111 44.3961 116.384 44.3632 115.657 44.1986C114.956 44.0587 114.27 43.8448 113.601 43.5485C112.932 43.2523 112.313 42.9149 111.752 42.5199C111.363 42.2154 111.017 41.8287 110.719 41.3679C110.422 40.907 110.084 40.5368 109.687 40.257L109.712 40.2487ZM113.031 27.1483C113.007 27.2882 112.957 27.4116 112.883 27.5268C112.809 27.642 112.751 27.7572 112.693 27.8807C112.635 28.0041 112.619 28.1358 112.627 28.2592C112.635 28.3826 112.718 28.5308 112.858 28.6953V32.7522C112.858 32.8098 112.899 33.0237 112.982 33.4023C113.065 33.7808 113.139 34.0524 113.188 34.2169C113.164 34.2745 113.172 34.3815 113.23 34.5543C113.287 34.7271 113.329 34.8177 113.354 34.8506C113.436 35.155 113.527 35.5171 113.626 35.9203C113.725 36.3235 113.923 36.628 114.237 36.8173C114.377 36.9325 114.51 37.0559 114.633 37.1958C114.757 37.3357 114.848 37.418 114.906 37.4509C114.931 37.4756 114.989 37.492 115.071 37.492C115.129 37.5167 115.187 37.5908 115.261 37.6978C115.335 37.8048 115.393 37.92 115.451 38.0352C115.509 38.1504 115.558 38.2409 115.6 38.3067C115.641 38.3725 115.69 38.3725 115.748 38.282C116.252 38.4795 116.789 38.5618 117.367 38.5371C117.945 38.5124 118.498 38.389 119.043 38.1833C119.588 37.9776 120.092 37.6978 120.554 37.3439C121.017 36.9901 121.405 36.5951 121.71 36.1507C122.049 35.6241 122.33 35.0727 122.569 34.5214C122.809 33.9701 123.064 33.4187 123.345 32.8921V32.7687L123.387 32.6864C123.387 32.6288 123.387 32.53 123.411 32.3901C123.436 32.2502 123.444 32.1103 123.477 31.9704C123.51 31.8306 123.519 31.6989 123.519 31.5755V31.345C123.519 31.345 123.477 31.2628 123.395 31.1805L123.601 31.0159C123.601 31.0159 123.618 30.9747 123.643 30.8102C123.667 30.6456 123.7 30.5139 123.725 30.4316C123.783 30.1272 123.832 29.8968 123.874 29.7404C123.915 29.5841 123.899 29.3866 123.808 29.1315C123.783 29.0492 123.75 28.9093 123.725 28.7118C123.7 28.5143 123.667 28.3168 123.643 28.1029C123.618 27.8889 123.576 27.7161 123.535 27.5597C123.494 27.4034 123.461 27.3047 123.428 27.247L123.172 26.6628C123.172 26.5476 123.131 26.3912 123.048 26.1773C122.965 25.9633 122.866 25.7576 122.751 25.5519C122.635 25.3462 122.519 25.1651 122.396 25.0088C122.272 24.8524 122.148 24.7619 122.041 24.7372L121.958 25.0335C121.958 25.0335 121.9 25.0088 121.875 25.0335C121.851 25.0582 121.818 25.0582 121.793 25.0335C121.735 24.9759 121.677 24.91 121.628 24.8277C121.578 24.7455 121.545 24.6714 121.545 24.622C121.545 24.5973 121.562 24.5809 121.586 24.5809C121.611 24.5809 121.644 24.5644 121.669 24.5397C121.694 24.515 121.727 24.4986 121.752 24.4986L121.793 24.4163V24.334C121.768 24.2517 121.727 24.1694 121.669 24.0789C121.553 23.9143 121.463 23.8403 121.372 23.8732C121.314 23.7333 121.231 23.5276 121.116 23.2643C121 23.0009 120.909 22.7952 120.818 22.6553C120.794 22.6553 120.777 22.6389 120.777 22.6142C120.777 22.5895 120.777 22.573 120.752 22.573C120.728 22.573 120.728 22.5566 120.728 22.5319C120.703 22.5072 120.686 22.4743 120.686 22.4496C120.662 22.4249 120.546 22.3591 120.348 22.2603L119.968 22.0711C119.968 22.0711 119.894 22.0381 119.819 21.9641C119.745 21.89 119.704 21.8571 119.671 21.8571C119.588 21.8324 119.489 21.7995 119.373 21.7748C119.291 21.7501 119.208 21.7337 119.142 21.7337C119.076 21.7337 119.01 21.7172 118.952 21.6925C118.193 21.528 117.491 21.5773 116.83 21.8407C116.169 22.104 115.583 22.5072 115.063 23.0585C114.543 23.6099 114.113 24.2435 113.758 24.9841C113.403 25.7247 113.147 26.4571 112.982 27.1812L113.031 27.1483Z" fill="#36D0B8" fill-opacity="0.48"/>
<path d="M128.529 19.7341C128.529 19.3144 128.554 18.977 128.612 18.7055C128.67 18.4421 128.793 18.1212 128.992 17.7591L129.157 18.0554C129.157 18.0554 129.239 18.0307 129.322 17.9895C129.404 17.9484 129.462 17.9155 129.487 17.8826H129.652L129.817 17.9649C129.817 17.9649 129.883 18.0225 129.941 18.0472C129.966 18.1048 129.982 18.2117 129.982 18.3845C129.982 18.5573 129.966 18.6643 129.941 18.7219C129.999 18.6972 130.057 18.6396 130.131 18.5491C130.197 18.4668 130.247 18.4092 130.28 18.3845V18.0472C130.28 17.9895 130.255 17.8332 130.197 17.5616C130.139 17.2901 130.115 17.1337 130.115 17.0761C130.115 17.0185 130.139 16.9362 130.181 16.821C130.222 16.7058 130.255 16.64 130.288 16.6153C130.321 16.5906 130.362 16.5742 130.437 16.5742H130.816C130.883 16.5742 130.924 16.5906 130.924 16.6153C130.982 16.64 131.039 16.7141 131.114 16.821C131.188 16.928 131.205 17.0185 131.18 17.0761V16.4507C131.32 16.7552 131.568 16.9609 131.94 17.0597C132.311 17.1584 132.608 17.2243 132.864 17.2489C132.889 17.2736 132.93 17.3312 132.972 17.4135C133.013 17.4958 133.038 17.5534 133.038 17.5781C133.096 17.6604 133.228 17.8497 133.434 18.1459C133.641 18.4421 133.781 18.6314 133.831 18.7137C133.888 18.6561 133.971 18.6314 134.087 18.6314C134.202 18.6314 134.285 18.6561 134.343 18.7137C134.367 18.7137 134.4 18.7795 134.425 18.9194C134.45 19.0593 134.483 19.1416 134.508 19.1745C134.846 19.9316 135.243 20.8368 135.705 21.8983C136.167 22.9598 136.638 24.046 137.109 25.1652C137.579 26.2843 138.05 27.3705 138.513 28.432C138.975 29.4936 139.371 30.3988 139.71 31.1558C139.735 31.2381 139.784 31.3615 139.859 31.5343C139.933 31.7071 139.974 31.7977 140.007 31.8306C140.04 31.8635 140.09 31.9046 140.172 31.9787C140.255 32.0528 140.313 32.0939 140.338 32.1268C140.362 32.1844 140.387 32.2914 140.404 32.4395C140.42 32.5876 140.437 32.744 140.47 32.9003C140.503 33.0567 140.536 33.1884 140.594 33.2953C140.651 33.4023 140.75 33.4599 140.891 33.4599C140.916 33.4599 140.949 33.4434 140.973 33.4188C141.056 33.2789 141.147 33.0978 141.246 32.8757C141.345 32.6535 141.436 32.4148 141.518 32.168C141.601 31.9211 141.684 31.6825 141.75 31.4603C141.816 31.2381 141.882 31.0406 141.94 30.876C141.997 30.7361 142.055 30.4646 142.129 30.0614C142.204 29.6581 142.245 29.3948 142.278 29.2878C142.361 29.3701 142.476 29.3701 142.617 29.2878C142.674 29.2056 142.732 29.0492 142.782 28.827L142.906 28.3251C142.93 28.2428 143.03 27.9548 143.203 27.4693C143.376 26.9838 143.55 26.4489 143.731 25.8811C143.913 25.3133 144.078 24.7949 144.235 24.334C144.392 23.8732 144.483 23.6181 144.508 23.5605C144.508 23.5029 144.549 23.3959 144.632 23.2231L144.797 22.8858C144.854 22.7705 144.904 22.6307 144.945 22.4661C144.987 22.3015 145.036 22.1451 145.094 22.0053C145.152 21.8407 145.218 21.6596 145.3 21.4622L145.135 21.2976C145.333 21.24 145.449 21.1001 145.49 20.8779C145.532 20.6557 145.556 20.4747 145.556 20.3348H145.854C145.854 20.1702 145.829 19.948 145.771 19.6847C145.713 19.4214 145.771 19.1992 145.936 19.0346C145.961 19.0346 145.994 19.0346 146.019 19.0099C146.044 18.9852 146.077 18.9852 146.101 18.9852V19.5284C146.242 19.2733 146.324 18.977 146.357 18.6232C146.382 18.2776 146.456 18.0307 146.564 17.8908C146.564 17.9155 146.58 17.9319 146.605 17.9319H146.688C146.688 17.9319 146.745 17.9731 146.77 17.9731C146.77 17.9155 146.77 17.8003 146.745 17.6192C146.721 17.4382 146.721 17.323 146.721 17.2654C146.745 17.1502 146.869 16.928 147.076 16.5989C147.282 16.2697 147.431 16.0558 147.513 15.9735H147.679C147.761 15.9488 147.835 15.8418 147.885 15.6608C147.935 15.4797 148.017 15.2905 148.116 15.093C148.215 14.8955 148.347 14.7227 148.513 14.5663C148.678 14.41 148.934 14.3359 149.272 14.3359V14.6733L149.355 14.7144H149.437C149.495 14.6898 149.603 14.6568 149.776 14.6322C149.949 14.6075 150.057 14.5746 150.115 14.5499C150.115 14.6898 150.139 14.772 150.197 14.805C150.255 14.8379 150.329 14.8626 150.428 14.8872C150.527 14.9119 150.618 14.9531 150.701 15.0107C150.783 15.0683 150.858 15.1753 150.907 15.3481C150.907 15.4057 150.907 15.5044 150.883 15.6443C150.858 15.7842 150.932 15.85 151.072 15.85C151.097 15.8253 151.139 15.7924 151.196 15.7677L151.362 15.6855C151.362 15.6855 151.428 15.6443 151.485 15.6443H151.609C151.609 15.7019 151.626 15.8583 151.651 16.1298C151.675 16.4014 151.692 16.5659 151.692 16.6565C151.717 16.7717 151.807 16.8293 151.948 16.8457C152.088 16.8622 152.187 16.8704 152.245 16.8704C152.245 17.1749 152.245 17.4876 152.22 17.8085C152.196 18.1294 152.146 18.4421 152.03 18.7548C152.006 18.7795 151.94 18.8783 151.84 19.0511C151.741 19.2239 151.692 19.3309 151.692 19.3885V19.8493C151.551 20.4665 151.345 21.0672 151.081 21.6514C150.817 22.2357 150.585 22.8199 150.387 23.4124C150.387 23.47 150.313 23.7251 150.156 24.1859C149.999 24.6467 149.842 25.1569 149.669 25.7165C149.495 26.2761 149.347 26.7945 149.206 27.2635C149.066 27.7326 149 27.9877 149 28.0206C148.917 28.2428 148.835 28.4814 148.769 28.7283C148.703 28.9751 148.603 29.2138 148.496 29.436C148.298 29.8556 148.133 30.3082 147.992 30.7937C147.852 31.2792 147.695 31.7318 147.53 32.1515C147.414 32.456 147.307 32.7358 147.191 32.9909C147.076 33.246 146.985 33.5093 146.894 33.7891C146.894 33.8137 146.869 33.9125 146.828 34.0853C146.787 34.2581 146.754 34.3651 146.721 34.4227C146.556 35.1797 146.333 35.9121 146.052 36.6198C145.771 37.3275 145.523 38.0516 145.292 38.7758C145.152 39.1955 145.036 39.6069 144.937 40.0101C144.838 40.4133 144.722 40.7919 144.582 41.1375C144.442 41.4831 144.268 41.8287 144.053 42.1661C143.839 42.5035 143.558 42.808 143.195 43.0877L142.691 43.4251C142.435 43.5897 142.286 43.6884 142.229 43.7214C142.204 43.746 142.146 43.7543 142.063 43.746C141.981 43.7378 141.923 43.7214 141.898 43.7214C141.7 43.779 141.551 43.8448 141.461 43.9271C141.37 44.0094 141.213 44.0505 141.023 44.0505H140.767L140.643 43.8859C140.387 43.8283 140.115 43.8036 139.801 43.8036C139.487 43.8036 139.223 43.7378 139 43.5979C138.975 43.5732 138.942 43.5321 138.917 43.4909C138.892 43.4498 138.859 43.4251 138.835 43.4251C137.769 41.8863 136.795 40.2817 135.911 38.6112C135.028 36.9407 134.186 35.2785 133.368 33.6327C133.087 33.0731 132.84 32.4642 132.608 31.8141C132.377 31.164 132.162 30.5386 131.94 29.9544C131.915 29.8968 131.857 29.7734 131.774 29.5759C131.692 29.3784 131.609 29.1809 131.518 28.9669C131.428 28.753 131.353 28.5637 131.262 28.3827C131.172 28.2016 131.122 28.0864 131.097 28.0288C130.982 27.6914 130.783 27.1319 130.486 26.3584C130.189 25.5848 129.9 24.7537 129.603 23.8897C129.305 23.0256 129.049 22.2028 128.826 21.421C128.603 20.6393 128.488 20.0962 128.488 19.7917L128.529 19.7341Z" fill="#36D0B8" fill-opacity="0.48"/>
<path d="M151.717 32.2501C151.717 32.2501 151.734 32.1925 151.758 32.1678L151.841 32.0855V32.0033C151.866 31.7811 151.824 31.6165 151.717 31.5013C151.61 31.3861 151.552 31.238 151.552 31.0405C151.552 30.9006 151.585 30.7936 151.659 30.7278C151.734 30.6619 151.775 30.555 151.808 30.4151C151.808 30.2999 151.775 30.2258 151.701 30.1847C151.626 30.1435 151.593 30.053 151.593 29.9131C151.593 29.8555 151.593 29.7897 151.618 29.7074C151.643 29.6251 151.692 29.5675 151.808 29.5428C151.667 29.4605 151.552 29.3453 151.469 29.2054V29.0409C151.469 29.0409 151.552 29.0162 151.634 28.975C151.717 28.9339 151.775 28.9092 151.8 28.9092L151.841 28.8269V28.7446C151.841 28.7446 151.758 28.6788 151.676 28.6376C151.593 28.5965 151.535 28.5718 151.511 28.5718C151.734 28.5142 151.899 28.399 151.998 28.218C152.097 28.0369 152.146 27.8312 152.146 27.609C152.171 27.3868 152.13 27.2387 152.023 27.1729C151.915 27.1071 151.857 26.9836 151.857 26.819C151.857 26.5393 151.94 26.3335 152.113 26.1936C152.287 26.0538 152.419 25.8892 152.535 25.6917C152.7 25.4695 152.791 25.1157 152.807 24.6219C152.824 24.1282 152.857 23.7497 152.914 23.4699C152.972 23.0831 153.047 22.7622 153.146 22.5318C153.245 22.3014 153.352 21.9804 153.459 21.5937C153.459 21.569 153.484 21.4867 153.525 21.3633C153.567 21.2398 153.608 21.1 153.649 20.9436C153.691 20.7873 153.732 20.6474 153.773 20.5239C153.814 20.4005 153.839 20.3182 153.839 20.2935L153.922 20.2112L154.004 20.1289C154.062 20.0713 154.153 19.9397 154.277 19.734C154.401 19.5282 154.483 19.3883 154.508 19.339C154.566 19.3637 154.649 19.3801 154.764 19.3801C154.88 19.3801 154.962 19.3637 155.02 19.339C155.045 19.3143 155.078 19.2073 155.103 19.0263C155.127 18.8452 155.16 18.7383 155.185 18.7136C155.185 18.6889 155.235 18.656 155.334 18.6313C155.433 18.6066 155.483 18.5737 155.483 18.549C155.507 18.4914 155.549 18.3844 155.606 18.2116C155.664 18.0388 155.689 17.9318 155.689 17.8742C155.772 17.7919 155.829 17.7508 155.854 17.7508C155.937 17.6932 156.127 17.652 156.424 17.6274C156.721 17.6027 156.911 17.5862 156.994 17.5862C157.051 17.3064 157.159 17.1089 157.332 17.002C157.506 16.895 157.671 16.8045 157.836 16.7469C158.001 16.6893 158.141 16.6234 158.257 16.5411C158.373 16.4589 158.397 16.319 158.34 16.1215C158.728 16.0063 159.091 15.8746 159.413 15.7265C159.735 15.5784 160.09 15.4961 160.487 15.4961C161.131 15.4961 161.783 15.5454 162.444 15.6442C163.104 15.7429 163.707 15.9569 164.269 16.2943C164.326 16.319 164.409 16.4095 164.525 16.5494C164.64 16.6893 164.706 16.7715 164.731 16.8045C164.756 16.8045 164.838 16.8292 164.962 16.8703C165.086 16.9114 165.169 16.9361 165.194 16.9361C165.218 16.9608 165.309 17.0266 165.45 17.1254C165.59 17.2241 165.672 17.2735 165.705 17.2735H166.003C166.003 17.2735 166.069 17.3558 166.11 17.4381C166.151 17.5204 166.176 17.578 166.176 17.6027C166.201 17.6027 166.234 17.6274 166.259 17.6685C166.284 17.7096 166.317 17.7426 166.341 17.7755C167.407 18.5819 168.29 19.3966 168.992 20.203C169.694 21.0094 170.363 22.0134 171.007 23.2148C171.065 23.33 171.139 23.4863 171.238 23.7003C171.337 23.9142 171.436 24.1117 171.535 24.3092L171.808 24.8523C171.89 25.0169 171.932 25.1157 171.932 25.1486V25.5271C171.932 25.6423 171.932 25.7493 171.907 25.8645C171.882 25.9797 171.882 26.062 171.882 26.1196V27.2058C171.882 27.4856 171.816 27.823 171.676 28.2097C171.618 28.4072 171.527 28.5718 171.403 28.7117C171.279 28.8516 171.156 29.0079 171.048 29.1725C170.908 29.3371 170.842 29.4523 170.842 29.5099C170.842 29.5675 170.726 29.6662 170.503 29.8061C170.445 29.8637 170.288 29.946 170.016 30.0612C169.743 30.1764 169.587 30.2423 169.529 30.267C169.504 30.2916 169.421 30.3575 169.298 30.4562C169.174 30.555 169.091 30.6043 169.066 30.6043C168.587 30.8018 168.018 30.9253 167.34 30.9829C166.663 31.0405 166.094 31.0816 165.615 31.1063C165.359 31.1063 164.855 31.1063 164.104 31.0816C163.352 31.0569 162.551 31.0487 161.709 31.0158C160.867 30.9829 160.074 30.9664 159.339 30.95C158.604 30.9335 158.084 30.9253 157.803 30.9253C157.778 30.9253 157.729 30.9417 157.654 30.9664C157.58 30.9911 157.522 31.024 157.464 31.0487V31.131C157.464 31.4931 157.522 31.9457 157.63 32.4888C157.737 33.0319 157.894 33.5832 158.092 34.1428C158.29 34.7023 158.505 35.2208 158.744 35.7145C158.984 36.2082 159.215 36.5868 159.438 36.8665C159.496 36.9488 159.603 37.0723 159.777 37.2451C159.95 37.4179 160.123 37.5825 160.305 37.747C160.487 37.9116 160.668 38.068 160.85 38.2079C161.032 38.3477 161.18 38.43 161.288 38.4629C161.345 38.4876 161.502 38.5452 161.775 38.6275C162.047 38.7098 162.188 38.7674 162.213 38.7921C162.237 38.7921 162.295 38.8168 162.378 38.8579C162.46 38.8991 162.518 38.9238 162.543 38.9238H162.667C162.724 38.9238 162.881 38.8991 163.154 38.8579C163.426 38.8168 163.583 38.7921 163.641 38.7921C163.666 38.7921 163.724 38.8168 163.806 38.8579C163.889 38.8991 163.947 38.9238 163.971 38.9238C163.996 38.9238 164.054 38.8991 164.137 38.8579C164.219 38.8168 164.277 38.7921 164.302 38.7921C164.359 38.7674 164.442 38.7592 164.558 38.7674C164.673 38.7756 164.739 38.7921 164.764 38.7921C164.789 38.7921 164.855 38.7674 164.954 38.7098C165.053 38.6522 165.119 38.6275 165.144 38.6275C165.202 38.6028 165.359 38.5452 165.631 38.4629C165.904 38.3807 166.061 38.3231 166.118 38.2984C166.284 38.2408 166.531 38.1338 166.853 37.961C167.175 37.7882 167.349 37.6977 167.382 37.6647L171.874 33.3117C172.014 33.3693 172.064 33.4351 172.023 33.5174C171.981 33.5997 171.99 33.6984 172.047 33.8136C172.047 33.8383 172.089 33.8877 172.171 33.9617C172.254 34.0358 172.295 34.0769 172.295 34.1099C172.295 34.1428 172.295 34.2004 172.32 34.2991C172.345 34.3979 172.345 34.4719 172.345 34.5295C172.345 34.7517 172.32 34.9327 172.279 35.0726C172.237 35.2125 172.146 35.3771 172.006 35.5746H172.171C172.336 35.5746 172.468 35.5088 172.568 35.3689C172.667 35.229 172.799 35.1302 172.964 35.0726V35.3277C172.939 35.5252 172.906 35.698 172.881 35.8544C172.857 36.0107 172.815 36.1835 172.758 36.381L172.592 36.5456C172.592 36.5456 172.592 36.6197 172.617 36.6937C172.642 36.7678 172.642 36.8254 172.642 36.883H173.104C173.047 36.9406 172.931 37.0887 172.749 37.3438C172.568 37.5989 172.452 37.7635 172.394 37.8458V37.9692C172.394 38.0844 172.419 38.1585 172.477 38.1996C172.535 38.2408 172.559 38.3066 172.559 38.3889V38.4712L172.394 38.6358C172.312 38.718 172.237 38.7756 172.188 38.8003C172.163 38.825 172.122 38.9073 172.064 39.0307C172.006 39.1542 171.948 39.2858 171.874 39.4257C171.8 39.5656 171.742 39.6973 171.684 39.8207C171.626 39.9442 171.585 40.0264 171.56 40.0511C171.535 40.1087 171.469 40.1992 171.37 40.3227C171.271 40.4461 171.205 40.5284 171.18 40.5531C171.123 40.5778 171.056 40.6107 170.974 40.6354L170.718 40.7177C170.718 40.7177 170.685 40.7506 170.693 40.8246C170.701 40.8987 170.693 40.9645 170.668 41.0304C170.644 41.0962 170.602 41.1538 170.544 41.1949C170.487 41.2361 170.379 41.2279 170.206 41.1703C170.041 41.3678 169.801 41.6228 169.496 41.9438C169.19 42.2647 168.876 42.4951 168.571 42.635C168.513 42.635 168.373 42.6761 168.15 42.7584C167.927 42.8407 167.803 42.8983 167.77 42.923C167.737 42.9477 167.712 43.0053 167.687 43.0876C167.663 43.1699 167.63 43.2275 167.605 43.2522C167.522 43.3921 167.349 43.5073 167.101 43.5896C166.341 43.894 165.565 44.0504 164.772 44.0504H160.635C160.577 44.0504 160.495 44.0257 160.379 43.9845C160.264 43.9434 160.198 43.9105 160.173 43.8776C160.115 43.8529 159.999 43.8035 159.818 43.7294C159.636 43.6554 159.438 43.5731 159.232 43.4744C159.025 43.3756 158.827 43.2933 158.645 43.2193C158.464 43.1452 158.348 43.1041 158.29 43.0711C158.232 43.0382 158.075 42.9888 157.803 42.9066C157.53 42.8243 157.374 42.7667 157.316 42.742C157.06 42.6268 156.812 42.4869 156.556 42.3058C156.3 42.1248 156.077 41.952 155.887 41.7792C155.862 41.7545 155.763 41.6722 155.59 41.5488C155.416 41.4254 155.309 41.3431 155.251 41.3184C155.169 41.2361 155.086 41.1044 154.995 40.9234C154.904 40.7424 154.83 40.5531 154.764 40.3556C154.698 40.1581 154.64 39.9771 154.599 39.8125C154.558 39.6479 154.525 39.5327 154.492 39.4751C154.467 39.4504 154.409 39.3764 154.326 39.2694C154.244 39.1624 154.161 39.0307 154.07 38.8909C153.98 38.751 153.905 38.6193 153.839 38.4959C153.773 38.3724 153.724 38.2819 153.691 38.2243C153.633 38.142 153.55 37.9692 153.435 37.7223C153.319 37.4755 153.203 37.1957 153.08 36.9077C152.956 36.6197 152.832 36.3317 152.724 36.0683C152.617 35.805 152.526 35.6157 152.468 35.5005C152.411 35.4183 152.353 35.2454 152.303 34.9986C152.254 34.7517 152.204 34.5954 152.179 34.5378C152.179 34.4802 152.163 34.3732 152.138 34.2004C152.113 34.0276 152.072 33.8465 152.031 33.6326C151.99 33.4186 151.957 33.2376 151.923 33.0648C151.89 32.892 151.882 32.785 151.882 32.7274C151.882 32.7027 151.857 32.6204 151.816 32.497C151.775 32.3736 151.75 32.2913 151.75 32.2666L151.717 32.2501ZM158.274 25.3872C159 25.4448 159.768 25.5106 160.561 25.5929C161.354 25.6752 162.08 25.7164 162.724 25.7164C163.253 25.7164 163.765 25.6835 164.26 25.6094C164.756 25.5353 165.251 25.4777 165.755 25.4201H165.92C165.92 25.4201 166.036 25.3378 166.176 25.2556C166.317 25.1733 166.399 25.1157 166.432 25.091H166.515C166.515 25.091 166.573 25.0745 166.597 25.0498C166.597 24.7454 166.548 24.4327 166.449 24.1282C166.35 23.8237 166.193 23.5522 165.961 23.33H165.796C165.293 22.5482 164.723 21.9228 164.095 21.4456C163.468 20.9683 162.658 20.7379 161.676 20.7379C161.511 20.7379 161.296 20.7873 161.048 20.886C160.8 20.9848 160.561 21.1 160.338 21.2398C160.115 21.3797 159.9 21.5361 159.71 21.7007C159.521 21.8652 159.388 22.0216 159.331 22.1615C159.273 22.2438 159.174 22.4166 159.033 22.6634C158.893 22.9103 158.81 23.0667 158.777 23.1243C158.744 23.1819 158.711 23.2888 158.653 23.4617C158.596 23.6345 158.538 23.8073 158.488 23.9883C158.439 24.1693 158.381 24.3339 158.34 24.4903C158.298 24.6466 158.274 24.7371 158.274 24.7618C158.249 24.7865 158.232 24.8276 158.232 24.8853V25.091C158.232 25.091 158.232 25.165 158.257 25.2391C158.282 25.3132 158.282 25.3543 158.282 25.3872H158.274Z" fill="#36D0B8" fill-opacity="0.48"/>
<path d="M174.615 42.0904C174.731 41.8929 174.698 41.753 174.533 41.6707C174.368 41.5884 174.277 41.3909 174.277 41.0864V40.6668C174.302 40.6092 174.368 40.4693 174.467 40.2471C174.566 40.0249 174.615 39.885 174.615 39.8274V39.3666L174.698 39.2843L174.781 39.202C174.781 39.202 174.838 39.095 174.863 38.9716C174.888 38.8482 174.921 38.7659 174.946 38.7412C174.946 38.7165 174.946 38.6589 174.921 38.5766C174.896 38.4943 174.921 38.4367 174.946 38.412C175.392 37.548 176.077 37.1119 177.002 37.1119H177.506C177.588 37.1365 177.803 37.1859 178.133 37.26C178.464 37.334 178.695 37.3916 178.802 37.4492C179.19 37.5891 179.43 37.7373 179.512 37.8854C179.595 38.0335 179.776 38.2721 180.057 38.5766C180.115 38.6342 180.255 38.7659 180.478 38.9716C180.701 39.1773 180.825 39.3172 180.858 39.3666C181.056 39.6711 181.189 40.0414 181.255 40.4775C181.321 40.9136 181.362 41.2922 181.362 41.6295C181.362 42.0163 181.222 42.3866 180.941 42.7157C180.66 43.0449 180.363 43.3329 180.057 43.5551C179.776 43.7526 179.438 43.876 179.05 43.9336C178.662 43.9912 178.29 44.0159 177.96 44.0159C177.316 44.0159 176.688 43.8102 176.069 43.407C175.449 43.0038 174.962 42.5594 174.599 42.0904H174.615ZM174.574 26.4307C174.376 26.2332 174.318 25.9535 174.409 25.5914C174.5 25.2293 174.475 24.9084 174.368 24.6286C174.393 22.0859 174.467 19.6337 174.574 17.2555C174.69 14.8856 174.797 12.4251 174.913 9.89065C174.913 9.86596 174.913 9.77544 174.938 9.61909C174.962 9.46274 174.971 9.29817 175.004 9.11713C175.037 8.93609 175.053 8.75506 175.07 8.57402C175.086 8.39299 175.094 8.24487 175.094 8.13789C175.094 8.0556 175.094 7.93217 175.119 7.75936C175.144 7.58655 175.144 7.41375 175.16 7.23271C175.177 7.05167 175.185 6.87887 175.202 6.70606C175.218 6.53325 175.227 6.40982 175.227 6.32753C175.227 6.24524 175.293 6.16295 175.433 6.07243C175.598 5.81734 175.722 5.55401 175.788 5.27423C175.854 4.99445 175.994 4.71466 176.184 4.43488C176.209 4.43488 176.242 4.41019 176.267 4.36905C176.292 4.3279 176.325 4.30322 176.35 4.30322C176.374 4.27853 176.383 4.22916 176.374 4.1551C176.366 4.08104 176.374 4.03989 176.44 4.00698C176.639 3.8424 176.738 3.70251 176.754 3.5873C176.771 3.4721 176.779 3.36512 176.779 3.24992C176.779 3.13471 176.812 3.03596 176.886 2.93722C176.961 2.83847 177.159 2.7315 177.497 2.62452C177.522 2.59983 177.588 2.55869 177.687 2.51754C177.786 2.4764 177.852 2.45171 177.877 2.45171C177.902 2.45171 177.993 2.45171 178.15 2.42703C178.307 2.40234 178.406 2.40234 178.464 2.40234C178.942 2.42703 179.314 2.59983 179.578 2.9043C179.843 3.20877 180.148 3.48856 180.478 3.74365C180.842 4.02343 181.172 4.27853 181.469 4.51717C181.767 4.75581 181.981 5.09319 182.122 5.54578V6.76366C182.122 7.01876 182.122 7.2574 182.097 7.49603C182.072 7.73467 182.072 7.89102 182.072 7.98154C182.014 9.15005 181.957 10.3021 181.882 11.4377C181.808 12.5733 181.75 13.7171 181.692 14.8938C181.692 14.9185 181.692 14.9926 181.717 15.0995C181.742 15.2065 181.742 15.3299 181.742 15.4534C181.742 15.5768 181.742 15.7002 181.767 15.8072C181.791 15.9142 181.791 15.9883 181.791 16.0129C181.791 16.0705 181.791 16.194 181.767 16.3915C181.742 16.589 181.742 16.8029 181.725 17.0416C181.709 17.2802 181.692 17.4941 181.659 17.6916C181.626 17.8891 181.618 18.0126 181.618 18.0702V18.8848C181.618 19.0659 181.618 19.2387 181.643 19.4115C181.667 19.5843 181.667 19.6748 181.667 19.7077C181.667 19.9052 181.643 20.3413 181.601 21.0243C181.56 21.7073 181.511 22.4315 181.453 23.205C181.395 23.9785 181.337 24.6944 181.288 25.3857C181.238 26.0769 181.205 26.513 181.205 26.7023C181.205 26.7599 181.205 26.9162 181.23 27.1878C181.255 27.4594 181.255 27.7556 181.271 28.0847C181.288 28.4139 181.296 28.7513 181.296 29.0722V29.8046C181.296 29.8622 181.321 30.0185 181.362 30.2901C181.403 30.5617 181.428 30.718 181.428 30.7756C181.428 30.8003 181.428 30.8414 181.403 30.899C181.378 30.9566 181.378 30.9978 181.378 31.0225C181.321 31.5244 181.098 31.9853 180.71 32.4049C180.321 32.8246 179.95 33.1702 179.62 33.45C179.479 33.5652 179.306 33.631 179.091 33.6557C178.876 33.6804 178.72 33.7133 178.604 33.738C178.546 33.7627 178.43 33.8285 178.249 33.9273C178.067 34.026 177.952 34.0754 177.894 34.0754C177.869 34.0754 177.753 34.0507 177.555 34.0096C177.357 33.9684 177.217 33.9355 177.134 33.9026C176.63 33.738 176.234 33.4994 175.937 33.1949C175.639 32.8904 175.367 32.4954 175.119 32.0264C175.094 31.9688 175.053 31.8207 174.995 31.5903C174.938 31.3599 174.896 31.1788 174.871 31.0636C174.731 30.2819 174.657 29.5083 174.64 28.7431C174.624 27.9778 174.615 27.2043 174.615 26.4225L174.574 26.4307Z" fill="#36D0B8" fill-opacity="0.48"/>
<path d="M188.226 1.31672C188.366 1.31672 188.482 1.29203 188.564 1.23443C188.647 1.17682 188.746 1.15214 188.861 1.15214H188.944C188.944 1.15214 189.06 1.2015 189.2 1.30026C189.34 1.39901 189.423 1.44838 189.456 1.44838C189.539 1.50598 189.753 1.61296 190.084 1.78576C190.414 1.95857 190.629 2.06555 190.711 2.12315C190.653 2.26304 190.686 2.41938 190.818 2.60864C190.951 2.79791 191.025 2.89666 191.05 2.92134C191.438 3.28343 191.9 3.72779 192.437 4.23798C192.974 4.74817 193.51 5.29127 194.055 5.85084C194.6 6.4104 195.104 6.97821 195.567 7.546C196.029 8.1138 196.384 8.64044 196.64 9.11771C196.665 9.17531 196.764 9.38928 196.937 9.76781C197.111 10.1463 197.284 10.5742 197.466 11.0433C197.648 11.5123 197.821 11.9649 197.994 12.3846C198.168 12.8042 198.259 13.0676 198.292 13.1828C198.738 14.8286 199.142 16.5895 199.514 18.4575C199.877 20.3255 200.059 22.1194 200.059 23.8145C200.059 23.9544 200.042 24.2013 200.017 24.5716C199.993 24.9419 199.951 25.3204 199.91 25.7236C199.869 26.1268 199.836 26.4807 199.803 26.7934C199.77 27.1061 199.761 27.2707 199.761 27.2954C199.737 27.8796 199.646 28.4721 199.505 29.0728C199.365 29.6735 199.299 30.266 199.299 30.8502L199.423 31.1465C199.423 31.2617 199.382 31.3111 199.299 31.3111C199.159 31.8953 198.969 32.5289 198.729 33.2119C198.49 33.8949 198.234 34.5862 197.953 35.2856C197.672 35.9851 197.375 36.6599 197.053 37.3182C196.731 37.9765 196.434 38.569 196.153 39.0956C196.095 39.1779 196.021 39.3096 195.922 39.4906C195.823 39.6716 195.723 39.8444 195.624 40.0172C195.525 40.1901 195.434 40.3382 195.352 40.4781C195.269 40.618 195.212 40.7002 195.187 40.7332C195.129 40.7908 194.931 41.0129 194.6 41.3997C194.27 41.7865 193.899 42.2144 193.51 42.6752C193.122 43.136 192.734 43.5721 192.354 43.9754C191.975 44.3786 191.735 44.6419 191.619 44.7489C191.595 44.8065 191.479 44.9381 191.281 45.1439C191.083 45.3496 190.868 45.58 190.629 45.8104L189.96 46.4769C189.753 46.6827 189.613 46.8061 189.563 46.8308C189.34 46.9707 189.126 47.0694 188.911 47.127C188.696 47.1846 188.482 47.2505 188.259 47.3327C188.093 47.3904 187.945 47.4891 187.821 47.629C187.697 47.7689 187.524 47.8347 187.292 47.8347H187.21C187.21 47.8347 187.152 47.8183 187.127 47.7936L186.83 47.629C186.574 47.629 186.392 47.6537 186.285 47.7113C186.178 47.7689 186.079 47.8429 185.988 47.9417C185.897 48.0404 185.806 48.1392 185.69 48.2379C185.575 48.3367 185.41 48.4107 185.187 48.4683H185.022C184.939 48.4683 184.84 48.4437 184.724 48.386L184.559 48.3038V47.5056C184.196 47.4233 183.981 47.2916 183.907 47.1106C183.832 46.9295 183.733 46.6827 183.593 46.3782L183.254 45.7117V45.5882C183.42 45.0287 183.626 44.4362 183.866 43.8108C184.105 43.1854 184.444 42.6423 184.898 42.1979C184.923 42.1732 185.022 42.0909 185.195 41.9675C185.368 41.8441 185.476 41.7618 185.534 41.7371C185.649 41.6219 185.938 41.2927 186.417 40.7332C186.896 40.1736 187.408 39.5647 187.97 38.8899C188.531 38.2151 189.051 37.6062 189.522 37.0466C189.993 36.487 190.282 36.1497 190.364 36.0427C190.389 35.9028 190.48 35.6888 190.637 35.3926C190.794 35.0964 190.967 34.7919 191.165 34.471C191.363 34.15 191.545 33.8538 191.71 33.574C191.875 33.2942 191.991 33.0885 192.049 32.9486C192.074 32.8663 192.123 32.7511 192.197 32.6112C192.272 32.4713 192.338 32.315 192.404 32.1504C192.47 31.9858 192.536 31.8377 192.594 31.7143C192.652 31.5908 192.676 31.5086 192.676 31.4839C192.701 31.4592 192.709 31.3769 192.701 31.2535C192.693 31.13 192.676 31.0477 192.676 31.0231C192.701 30.9654 192.759 30.9078 192.842 30.8338C192.924 30.7597 192.982 30.7186 193.007 30.6857C193.147 30.1837 193.271 29.6241 193.387 29.0152C193.502 28.4063 193.593 27.7726 193.684 27.1308C193.775 26.4889 193.841 25.8553 193.89 25.2299C193.94 24.6045 193.973 24.0202 193.973 23.4936C193.973 22.6872 193.956 21.8643 193.932 21.0414C193.907 20.2185 193.808 19.4038 193.634 18.5892C193.61 18.5645 193.577 18.4904 193.552 18.3834C193.527 18.2765 193.494 18.186 193.469 18.1283C193.469 18.1037 193.444 18.0461 193.387 17.9638C193.329 17.8815 193.304 17.8239 193.304 17.7992V17.1738C193.304 17.1738 193.279 17.0915 193.238 17.0092C193.197 16.9269 193.164 16.8693 193.131 16.8446C193.131 16.82 193.073 16.6307 192.965 16.2768C192.858 15.923 192.726 15.5527 192.586 15.1495C192.445 14.7463 192.247 14.1949 191.999 13.4955C191.941 13.298 191.859 13.0182 191.743 12.6561C191.628 12.2941 191.562 12.0801 191.537 12.0307C191.479 11.9484 191.372 11.7839 191.198 11.5452C191.025 11.3066 190.851 11.0597 190.653 10.7882C190.455 10.5166 190.265 10.2615 190.084 10.0147C189.902 9.7678 189.786 9.57854 189.728 9.47157C189.704 9.41396 189.629 9.30698 189.522 9.15886C189.415 9.01074 189.324 8.90376 189.266 8.84616C189.15 8.73095 188.977 8.54992 188.738 8.30305C188.498 8.05618 188.25 7.8011 187.978 7.546C187.705 7.2909 187.474 7.06048 187.268 6.8383C187.061 6.61613 186.913 6.47623 186.83 6.41863C186.69 6.27874 186.434 6.08947 186.054 5.85084C185.674 5.6122 185.294 5.34888 184.898 5.05264C184.501 4.7564 184.155 4.45192 183.849 4.13099C183.543 3.81007 183.387 3.52205 183.387 3.27519C183.387 3.21758 183.411 3.11061 183.453 2.9378C183.494 2.76499 183.56 2.60042 183.643 2.43584C183.725 2.27126 183.816 2.10669 183.915 1.95034C184.014 1.79399 184.122 1.70346 184.229 1.67878C184.254 1.67878 184.394 1.70347 184.65 1.76108C184.906 1.81868 185.055 1.8269 185.112 1.80221C185.137 1.80221 185.278 1.72816 185.509 1.57181C185.74 1.41546 185.88 1.32495 185.905 1.30026C185.74 1.02048 185.682 0.839434 185.74 0.757145C185.798 0.674856 185.905 0.641941 186.054 0.674856C186.202 0.707772 186.368 0.748916 186.541 0.822977C186.714 0.897037 186.822 0.954639 186.88 1.01224C186.904 0.987555 186.962 0.94641 187.045 0.905266C187.127 0.864121 187.185 0.839434 187.21 0.839434C187.325 0.641941 187.416 0.559652 187.507 0.584338C187.598 0.609025 187.672 0.683085 187.738 0.790061C187.804 0.897037 187.887 1.02048 187.97 1.14391C188.052 1.26734 188.151 1.33317 188.267 1.33317L188.226 1.31672Z" fill="#36D0B8" fill-opacity="0.48"/>
<path d="M14.6231 65.7478C28.7932 65.8959 42.922 63.995 57.0591 63.2626C71.031 62.5385 85.0277 62.2752 99.0161 62.0694C127.744 61.6415 156.481 61.5675 185.209 61.5675C189.462 61.5675 189.47 54.9844 185.209 54.9844C156.472 54.9844 127.744 55.0584 99.0161 55.4863C85.0277 55.692 71.0393 55.9554 57.0591 56.6795C42.922 57.4119 28.7932 59.3127 14.6231 59.1646C10.3704 59.1153 10.3704 65.6984 14.6231 65.7478Z" fill="#36D0B8" fill-opacity="0.48"/>
</svg>
